<?xml version="1.0" encoding="UTF-8"?>
<svg id="Capa_2" xmlns="http://www.w3.org/2000/svg" viewBox="0 0 13.56 16">
  <defs>
    <style>
      .cls-1 {
        fill: #00bc00;
      }

      .cls-1, .cls-2 {
        fill-rule: evenodd;
      }

      .cls-2, .cls-3 {
        fill: #00bc00;
      }

      .cls-4 {
        fill: none;
        stroke: #272425;
        stroke-miterlimit: 22.93;
        stroke-width: .16px;
      }
    </style>
  </defs>
  <g id="Capa_1-2" data-name="Capa_1">
    <path class="cls-1" d="M13.56,0c-.77.3-2.76,1.72-3.42,2.93-.11.17-.21.34-.3.5-.29-.37-.6-.71-.94-1,.21-.06.55-.15,1.64-.94,1-.73,1.88-1.29,3.02-1.49"/>
    <circle class="cls-4" cx="6.03" cy="6.01" r="3.93" transform="translate(-1.2 10.5) rotate(-76.72)"/>
    <path class="cls-3" d="M8.49,6.02c.03-1.35-1.13-2.48-2.45-2.48s-2.44,1.15-2.47,2.41c-.03,1.38,1.13,2.52,2.44,2.53,1.33.01,2.51-1.11,2.48-2.46h0ZM10.14,6.11c0,.1-.02.2-.02.29-.15,1.53-.96,2.62-2.3,3.33-.59.31-1.23.42-1.89.41-.75-.02-1.45-.2-2.07-.62-.96-.63-1.62-1.48-1.84-2.62-.3-1.53.1-2.86,1.25-3.94.57-.54,1.25-.89,2.03-1.01,1.36-.22,2.56.11,3.57,1.08.62.6,1.04,1.32,1.19,2.18.04.21.05.43.07.65,0,.02,0,.05.01.07v.2h0Z"/>
    <path class="cls-2" d="M4.4,10.54c2.3.23,3.92.4,5.09-1.46,0,.89-.62,1.67-1.19,2.05-1.76,1.15-4.45.13-6.16.29-1.35.13-1.68.92-2.05,1.27.03-.41.27-.87.45-1.19.8-1.42,2.56-1.09,3.87-.96"/>
    <path class="cls-2" d="M5.55,11.97c-.56.35-2.2.03-3.62.63-1.44.61-1.52,1.63-1.5,2.94C.15,15.24-.03,14.15,0,13.63c.04-.66.46-1.17.94-1.47.65-.41,1.22-.39,2.17-.33.86.05,1.54.12,2.44.14"/>
    <path class="cls-2" d="M1.63,16c-.79-.12-1.47-1.39-.39-2.48.02.22-.21.75-.1,1.41.08.52.26.74.49,1.07"/>
  </g>
</svg>