<?xml version="1.0" encoding="UTF-8"?>
<svg xmlns="http://www.w3.org/2000/svg" xmlns:xlink="http://www.w3.org/1999/xlink" viewBox="0 0 1918.96 741.2">
  <defs>
    <style>
      .cls-1 {
        fill: #436e2d;
      }

      .cls-1, .cls-2, .cls-3, .cls-4 {
        stroke-width: 0px;
      }

      .cls-5 {
        isolation: isolate;
      }

      .cls-6 {
        stroke: #b2c762;
        stroke-width: 3.68px;
      }

      .cls-6, .cls-7, .cls-8, .cls-9 {
        fill: none;
        stroke-miterlimit: 10;
      }

      .cls-7 {
        mix-blend-mode: overlay;
        opacity: .18;
      }

      .cls-7, .cls-8, .cls-9 {
        stroke: #ff5d40;
      }

      .cls-7, .cls-9 {
        stroke-width: 1.18px;
      }

      .cls-8 {
        stroke-width: 1.1px;
      }

      .cls-2 {
        fill: #7dad3f;
      }

      .cls-3 {
        fill: #ff5d40;
      }

      .cls-4 {
        fill: #c2c757;
      }

      .cls-10 {
        clip-path: url(#clippath);
      }
    </style>
    <clipPath id="clippath">
      <path class="cls-8" d="M1887.89,685.12s32.95-57.31,28.2-94.59c-4.74-37.28-43.25-116.22-51.57-141.46-8.32-25.24-39.38-109.93-74.92-94.4-35.55,15.53-20.91,60.89-28.56,93.07-7.65,32.19,8.7,245.09,126.85,237.37Z"/>
    </clipPath>
  </defs>
  <g class="cls-5">
    <g id="Capa_2" data-name="Capa 2">
      <g id="NEW_ELEMENTS" data-name="NEW ELEMENTS">
        <g>
          <path class="cls-9" d="M1845.11,583.57s-40.18-8.43-55.75-21.71c-15.57-13.28-88.76,17.82-116.61,63.53,0,0-69.92,46.82-82.41,61.42-12.49,14.61-17.43,51.95-17.43,51.95,0,0,44.31-33.28,72.43-38.95,28.12-5.67,51.44-41.32,63.84-50.55,12.41-9.23,42.16-7.05,51.86-11.25,9.7-4.21,38.52-55.99,84.06-54.44Z"/>
          <path class="cls-7" d="M1675.79,620.73c29.78-43.13,98.54-71.7,113.57-58.88,15.57,13.28,55.75,21.71,55.75,21.71-5.06-.17-12.21-2.72-16.86-1.72-68.67,3.59-105.96,10.81-152.46,38.88Z"/>
          <path class="cls-3" d="M1672.75,625.38c61.25-36.56,164.4-74.62,223.98-17.71,3.88,3.77,7.44,7.84,10.77,12.08l-3.26,2.53c-6.45-8.14-14-15.37-22.53-21.29-60.03-40.82-151.32-7.55-208.96,24.39h0Z"/>
          <path class="cls-3" d="M1794.32,583.28c-17.64,11.7-34.58,24.98-48.43,41.09,3.24-4.23,6.68-8.32,10.33-12.23,11.03-11.7,23.21-22.21,36.16-31.76,0,0,1.95,2.89,1.95,2.89h0Z"/>
          <path class="cls-3" d="M1764.6,588.51c-10.49,6.96-20.65,14.57-30.32,22.66-9.63,8.17-18.89,16.88-26.57,26.96,11.13-15.47,25.53-28.26,40.28-40.2,4.97-3.96,10-7.81,15.21-11.5l1.4,2.08h0Z"/>
          <path class="cls-3" d="M1728.88,599.53c-29.03,23.46-56.39,49.93-76.75,81.42,14.79-24,34.02-44.94,54.46-64.24,6.86-6.42,13.87-12.66,21.18-18.6l1.11,1.42h0Z"/>
          <path class="cls-9" d="M1692.7,614.54c-8.58,6.51-12.47,9.66-20.69,16.57-8.2,6.92-16.27,14-24.06,21.37-7.79,7.37-15.45,14.89-22.58,22.9-7.12,8-13.96,16.3-19.6,25.4,5.83-8.98,12.82-17.13,20.08-24.96,7.27-7.85,15.07-15.19,22.99-22.38,7.93-7.19,16.11-14.09,24.43-20.82,8.32-6.72,21.03-16.44,29.67-22.71l-10.24,4.64Z"/>
        </g>
        <g>
          <g>
            <g class="cls-10">
              <path class="cls-8" d="M1887.89,685.12s32.95-57.31,28.2-94.59c-4.74-37.28-43.25-116.22-51.57-141.46-8.32-25.24-39.38-109.93-74.92-94.4-35.55,15.53-20.91,60.89-28.56,93.07-7.65,32.19,8.7,245.09,126.85,237.37Z"/>
              <path class="cls-8" d="M1919.28,572.59s-19.54,68.23-41.92,88.36c0,0-47.06.29-73.76-13.84"/>
              <path class="cls-8" d="M1911.17,555.9s-21.88,68.82-40.2,88.66c0,0-39.97-.82-79.48-20.97"/>
              <path class="cls-8" d="M1902.5,530.34s-16.95,69.91-38.75,94.54c0,0-42.88.79-85.21-33.67"/>
              <path class="cls-8" d="M1897.42,508.7s-26.38,89.65-40.13,99.45c0,0-60.75-11.57-91.92-49.85"/>
              <path class="cls-8" d="M1891.12,494.9s-19.54,68.23-41.92,88.36c0,0-51.42-4.42-84.72-32.44"/>
              <path class="cls-8" d="M1883.01,478.21s-21.88,68.82-40.2,88.66c0,0-41.89-.25-81.38-29.04"/>
              <path class="cls-8" d="M1874.34,452.65s-13.96,68.68-35.76,93.32c0,0-45.87,2.02-88.2-32.45"/>
              <path class="cls-8" d="M1869.27,431.01s-21.77,88.58-35.52,98.38c0,0-65.37-10.5-96.54-48.77"/>
              <path class="cls-8" d="M1866.28,418.27s-28.39,90.06-35.85,99.46c-7.46,9.4-85.38-46.1-85.38-46.1"/>
              <path class="cls-8" d="M1857.42,403.47s-22.56,87.65-31.67,97.53c0,0-47.65-18.87-74.28-48.01"/>
              <path class="cls-8" d="M1850.53,391.97s-20.86,82.9-29.71,90.96c0,0-54.94-22.21-66.06-44.05"/>
              <path class="cls-8" d="M1758.45,421.36s37.67,40.08,58.25,46.14c0,0,27.62-61.48,24.1-85.25"/>
              <path class="cls-8" d="M1833.07,367.72s-16.31,78.96-21.97,82.08c0,0-51.48-31.11-56.65-45.5"/>
              <path class="cls-8" d="M1826,358.73s-14.21,66.14-18.88,71.22c0,0-36.41-12.61-50.74-40.47"/>
              <path class="cls-8" d="M1757.71,374.75s26.7,31.92,45.09,38.54c0,0,16.92-48.28,15.07-61.04"/>
              <path class="cls-8" d="M1762.98,365.12s25.36,29.06,35.39,30.09c0,0,14.6-43.01,12.35-52.68"/>
              <path class="cls-8" d="M1799.36,345.18s-2.11,27.96-4.73,31.55c-2.62,3.59-19.71-25.81-19.71-25.81"/>
            </g>
            <path class="cls-8" d="M1887.89,685.12s32.95-57.31,28.2-94.59c-4.74-37.28-43.25-116.22-51.57-141.46-8.32-25.24-39.38-109.93-74.92-94.4-35.55,15.53-20.91,60.89-28.56,93.07-7.65,32.19,8.7,245.09,126.85,237.37Z"/>
          </g>
          <path class="cls-6" d="M1793.64,375.32s53.72,214.52,94.25,309.8c11.19,26.31,10.9,26.62,10.9,26.62"/>
        </g>
        <g>
          <path class="cls-2" d="M1834.47,638.33s-102.4-116.79-156.17-131.39c0,0,98.36,113.64,156.17,131.39Z"/>
          <path class="cls-2" d="M1636.9,577.73s35.12-24.01,116.35,18.29c81.23,42.31,85.32,47.17,85.32,47.17,0,0-98.88-20.54-123.07-36.15-24.19-15.61-64.92-31.14-78.59-29.31Z"/>
          <path class="cls-2" d="M1629.08,616.12s61.73,32.43,104.44,29.69c42.71-2.74,112.49,11.17,128.25,20.04,0,0-22.69-28.63-118-38.34-95.31-9.72-114.69-11.39-114.69-11.39Z"/>
          <path class="cls-2" d="M1634.56,657.15s73.04,24.74,138.46,19.05c40.21-3.5,111.28,11.49,111.28,11.49,0,0-49.95-34.72-118.94-29.59-68.99,5.13-101.2,4.79-130.81-.96Z"/>
          <path class="cls-2" d="M1754.47,451.16s41.11,98.19,58.73,129c17.62,30.81,50.74,88.27,50.74,88.27,0,0-36.3-159.88-109.47-217.27Z"/>
          <path class="cls-2" d="M1875.35,682c2.27,1.72,4.37,3.68,6.24,5.85-9.29-47.61-23.96-119.74-31.14-139.03-10.98-29.49-49.68-77.14-49.68-77.14,0,0,49.31,134.6,74.58,210.32Z"/>
          <path class="cls-2" d="M1885.84,693.68c2.04,1.76,3.89,3.75,5.56,5.88.24-14.76.94-32.88,2.47-54.37,4.89-68.82-39.36-142.43-39.36-142.43,8.55,19.68,22.91,124.77,31.33,190.92Z"/>
          <path class="cls-2" d="M1894.52,704.43c2.63,2.21,2.08-2.52,4.08.27,12.98-38.82,30.9-105.92,10.02-213.03,0,0-.79,115.79-14.1,212.76Z"/>
          <path class="cls-2" d="M1679.57,701.38s128.35-3.37,206.27-7.69c0,0-41.91,39.29-206.27,7.69Z"/>
          <path class="cls-2" d="M1727.3,728.49s59.53,3.24,116.77-6.96c19.57-3.49,39.45-4.55,55.81-13.27l1.6,3.14s-76.67,53.54-174.18,17.09Z"/>
          <path class="cls-2" d="M1802.09,473.33c.04.06,41.78,70.64,48.72,98.33,6.95,27.7,30.78,116.19,30.78,116.19-9.29-47.61-23.96-119.74-31.14-139.03-9.78-26.27-41.53-66.92-48.36-75.49Z"/>
          <path class="cls-2" d="M1854.5,502.76s26.42,64.8,29.1,89.44c2.68,24.63,7.79,107.36,7.79,107.36.24-14.76.94-32.88,2.47-54.37,4.89-68.82-39.36-142.43-39.36-142.43Z"/>
          <path class="cls-2" d="M1908.62,491.67s13.26,114.91-10.02,213.03c12.98-38.82,30.9-105.92,10.02-213.03Z"/>
          <path class="cls-2" d="M1733.52,645.81c39.87-2.55,103.32,9.39,124.4,18.21h0c-33.8-22.4-88.33-27.86-130.62-26.74-42.28,1.11-98.22-21.16-98.22-21.16,0,0,61.73,32.43,104.44,29.69Z"/>
          <path class="cls-2" d="M1773.02,676.2c32.16-2.8,84.03,6.23,103.52,9.95h0c-24.73-15.6-98.35-21.02-136.15-16.66-37.8,4.35-105.83-12.34-105.83-12.34,0,0,73.04,24.74,138.46,19.05Z"/>
          <path class="cls-2" d="M1881.76,696.58l4.08-2.89s-15.18,8.32-27.47,7.76c-12.29-.57-78.73,5.69-96.07,5.91-17.34.21-82.73-5.97-82.73-5.97,136.28,26.2,188.37,3.67,202.2-4.8Z"/>
          <path class="cls-2" d="M1727.3,728.49c88.17,32.96,159.29-7.65,172.1-15.74l2.07-1.35-47.76,15.76c-60.5,21.11-126.42,1.33-126.42,1.33Z"/>
          <path class="cls-2" d="M1810.71,619.95s88.24,72.01,108.24,118.8"/>
        </g>
        <g>
          <path class="cls-4" d="M945.85,95.44c-.44.71-.7,1.06-1.15,1.62-.59,1.13-1.14,2.11-1.71,3.02-1.24,2.35-2.77,4.78-4.36,8.04-6.44,12.41-15.52,32.2-26.62,57.57-11.24,25.57-24.66,56.26-40.25,89.65-7.79,16.81-16.32,34.29-25.22,51.63-2.31,4.58-4.5,8.83-6.78,13.23-2.29,4.6-4.55,9.06-6.92,13.69-4.7,9.14-9.53,18.25-14.47,27.3-19.95,36.05-42.33,71.59-66.57,101.76-12.11,14.93-24.83,28.55-37.73,39.92-12.88,11.23-26.08,20.35-39.28,26.07-6.75,2.79-13.55,5.21-20.31,7.37-3.28.99-6.75,1.78-10.15,2.97-3.36.83-6.84,1.94-10.26,2.74-13.55,3.27-27.26,6.2-40.88,7.22-27.28,2.98-54.46.73-80.79-6.9-26.48-7.3-52.14-20.45-76.61-38.14-24.43-17.89-47.65-40.42-69.22-66.81-5.39-6.33-10.77-13.25-15.93-20.28-5.28-6.92-10.39-14.13-15.41-21.36-5.04-7.56-10.02-14.46-14.85-22.1-2.49-3.88-4.89-7.78-7.2-11.57-2.48-3.65-4.91-7.44-7.29-11.05-2.37-4.01-4.7-7.81-7.1-11.86-2.34-3.39-4.61-6.97-7-10.72-2.26-3.65-4.55-7.24-6.92-11.21-2.18-3.59-4.37-7.2-6.53-10.8-2.18-3.73-4.17-7.95-6.14-11.92-2.05-4.1-4.1-8.22-6.06-12.26-3.78-8.71-7.54-17.25-11.03-26.27-3.4-9.19-6.81-17.95-9.89-27.37-3.08-9.7-6.15-18.79-9.05-27.97-2.9-9.41-5.61-18.38-8.3-27.31-2.58-9.26-5.08-18.38-7.43-27.14-9.43-36.14-16.93-88.77-22.03-118.13-.19-1-.35-1.83-.49-2.56-1.08-1.64-2.33-1.51-3.12,1.59-.85,2.94-.75,7.79-.56,11.64.51,3.96,1.19,8.1,1.79,11.88,4.65,30.56,10.92,66.83,19.61,105.08,2.18,9.68,4.51,19.35,6.92,29.19,2.45,9.74,5.1,19.33,7.84,29.34,5.59,19.7,12.33,38.29,19.38,56.86,3.59,9.35,7.52,18.1,11.46,27.08,1.94,4.47,4.09,8.56,6.15,12.66,2.18,4.27,4.26,8.5,6.5,12.47,2.29,3.93,4.56,7.69,6.89,11.44,1.16,1.91,2.26,3.57,3.39,5.36,1.13,1.99,2.3,3.79,3.48,5.6,2.31,3.74,4.73,7.37,7.09,10.82,2.23,3.86,4.58,7.72,6.96,11.54,2.39,3.75,4.75,7.42,7.09,10.92,2.42,4.03,4.84,7.91,7.22,11.57,4.9,7.74,9.97,14.72,14.98,22.29,5.04,7.38,10.23,14.64,15.54,21.47,5.21,7.09,10.61,14.05,16.04,20.45,21.8,26.61,45.32,49.58,70.01,67.5,24.72,17.87,50.65,31.16,77.36,38.59,26.73,7.72,54.19,9.97,81.82,7.01,13.62-1.11,27.51-4.06,41.06-7.24,3.52-.84,6.92-1.83,10.34-2.93,3.41-.9,6.71-1.76,10.15-2.76,6.87-2.15,13.76-4.59,20.56-7.42,13.76-5.91,27.6-15.52,40.89-27.23,13.39-11.75,26.39-25.69,38.78-41.1,24.92-30.94,47.75-67.24,68.01-103.89,5.06-9.25,10.03-18.53,14.82-27.85,4.78-8.91,9.4-18.19,13.81-27.6,8.74-18.82,16.91-37.12,24.56-55.14,15.19-35.14,28-67.64,38.71-94.33,10.71-26.57,19.29-47.63,25.46-60.88,1.54-3.42,2.9-5.76,4.08-8.23.64-1.32,1.21-2.38,1.76-3.49.44-.76.92-1.52,1.36-2.28.09-.16.12.12.2-.03-.12,0-.36-.03-.48-.04Z"/>
          <path class="cls-1" d="M947.11,98.8c-.75-.04-1.49-.16-2.24-.22-.15.22-.06.08-.2.3-.03.07-.06.15-.09.22-2.15,3.85-4.52,8.16-6.61,12.08-2.13,4.53-4.25,9.01-6.39,13.44-4.43,8.47-8.51,18.24-12.67,27.39-2.04,4.52-4.08,9.01-6.13,13.45-2.24,4.98-4.01,9.57-6.13,14.31-3.99,9.39-8.01,18.63-12.05,27.72-8.14,18.26-16.38,35.92-24.73,52.97-8.18,17.4-16.46,34.23-24.84,50.47-8.39,16.39-16.63,32.89-25.23,48.23-8.54,15.31-17.17,30.04-25.89,44.18-8.63,14.47-17.7,27.03-26.54,39.3-4.5,6.21-9.02,12.26-13.56,18.15-4.32,5.6-9.13,10.51-13.51,15.48-9.28,10.06-18.55,19.77-27.53,27.94-9.24,7.51-18.46,14.88-27.71,19.5-18.26,10.54-36.56,14.01-54.42,19.15-17.94,4.94-35.62,5.87-53.3,7.39-17.5.84-34.72-.91-51.6-5.18-4.25-1.08-8.47-2.33-12.67-3.73-4.28-1.08-8.53-2.32-12.77-3.72-8.35-2.79-16.62-6.21-24.79-10.26-8.16-4.08-16.22-8.78-24.18-14.1-7.97-5.34-16-11.56-23.79-17.23-15.77-11.99-31.12-26.5-45.97-43.54-14.61-17.24-29.46-35.98-43.58-56.07-7.23-10.12-14.17-20.65-21.22-31.78-3.56-5.86-7.05-10.79-10.47-16.37-1.76-2.8-3.5-5.64-5.24-8.52-1.86-3.23-3.59-5.65-5.42-8.49-6.98-11.1-14.2-21.87-20.83-34.95-6.53-12.39-12.83-27.1-18.8-42.17-6-15.78-11.58-31.98-17.05-49.47-5.48-17.03-10.76-34.35-15.75-53.36-9.9-36.73-16.36-81.19-23.84-124.93-.1-.52-.2-1.04-.3-1.56-.13-.11-.27-.21-.4-.31-.48-.66-.84-1.01-1.29-1.28-.55-.07-.89-.17-1.5.27-.32.17-.63.71-.89,1.16-.37.21-.43.76-.57.99-.11.33-.22.66-.33.99-.03.05-.06.11-.09.16-.09.26-.18.52-.27.78-.01.02-.02.04-.03.06-.07.36-.14.72-.21,1.09-.24,1.14-.51,2.59-.56,3.77-.08,1.17-.17,2.78-.16,3.79-.09,2.27-.03,4.38-.01,6.33.05.27.1.54.16.81,0,.23.01.46.02.69,4.94,32.65,10.56,63.19,16.59,92.95,5.87,30.06,12.93,57.99,20.41,84.53,4.01,12.57,8.11,24.8,12.32,36.68,2.1,5.99,4.23,11.89,6.38,17.71,2.24,5.5,4.51,10.9,6.79,16.22,9.01,21.97,19.2,40.09,29.58,56.19,5.19,8.09,10.29,15.66,15.4,24.09,5.1,8.17,10.18,15.9,15.21,23.95,10.26,15.68,20.77,30.55,31.32,44.36,5.27,7.1,10.62,13.86,16.02,20.29,5.33,6.73,10.73,13.14,16.19,19.21,10.92,12.03,22.09,22.75,33.48,32.14,5.72,4.71,11.49,9.09,17.31,13.14,5.74,4.13,11.49,8.43,17.32,12.18,11.72,7.61,23.67,13.9,35.8,18.86,12.04,5.31,24.38,8,36.73,11.6,12.35,3.19,24.88,5.06,37.57,5.57,12.65.6,25.58-.65,38.48-2.19,12.89-1.22,25.92-3.81,39.08-7.8,13.01-3.67,26.27-7.15,39.69-13.08,6.65-3.36,13.33-7.07,20.02-11.13,6.76-5,13.52-10.35,20.28-16.06-6.73,5.59-13.45,10.83-20.17,15.72-6.73,4.06-13.44,7.76-20.13,11.1-13.41,5.71-26.56,9.01-39.67,12.53-13.14,3.84-26.16,6.27-39.03,7.34-12.87,1.28-25.67,2.47-38.29,1.65-12.65-.68-25.14-2.71-37.45-6.06-12.34-3.76-24.74-6.65-36.72-12.12-12.04-5.1-23.89-11.51-35.52-19.24-5.94-3.77-11.52-8.18-17.37-12.34-5.79-4.12-11.54-8.57-17.22-13.35-11.32-9.58-22.42-20.46-33.25-32.66-5.44-6.08-10.81-12.5-16.11-19.24-5.38-6.43-10.7-13.2-15.95-20.31-10.57-14.03-20.89-28.95-31.09-45-5.06-7.93-10.24-16.09-15.32-24.16-4.99-8.49-10.28-16.45-15.36-24.52-10.26-16.1-20.17-34.11-29.08-55.63-2.25-5.36-4.48-10.81-6.69-16.35-2.1-5.77-4.18-11.63-6.24-17.57-4.15-11.91-8.21-24.16-12.16-36.75-7.31-25.97-14.19-53.67-20.01-83.61-5.83-29.59-11.43-60.23-16.2-91.95-.03-1.36-.07-2.82-.05-4.07-.05-.98.12-1.3.12-1.92-.04-.74.15-.68.13-1.4.01-.03.03-.05.04-.08,0-.01,0-.02,0-.03.1-.28.2-.57.3-.85.13-.23.26-.46.21-.37,0,.06,0,.08,0,.1.06.08.2.24.33.31,7.22,42.68,13.54,86.78,23.62,124.82,4.86,18.51,10.27,36.66,15.74,53.92,5.38,17.48,11.05,34.1,17.05,49.65,6.19,15.91,12.33,30.48,19.24,43.85,6.66,13.3,13.81,24.07,20.9,35.39,1.67,2.82,3.68,5.6,5.21,8.16,1.75,2.94,3.5,5.83,5.26,8.69,3.39,5.72,7.1,11,10.47,16.73,6.91,11.02,13.96,21.87,21.15,31.95,14.34,20.9,28.82,39.16,43.82,56.47,14.98,16.93,30.46,31.32,46.36,43.17,8.07,5.69,15.87,11.69,23.91,16.95,8.08,5.27,16.27,9.9,24.55,13.89,8.24,3.97,16.58,7.3,25,10,4.23,1.34,8.47,2.51,12.74,3.53,4.2,1.36,8.42,2.57,12.66,3.62,17.09,4.12,34.52,5.67,52.21,4.6,17.64-1.74,35.24-2.85,53.35-8.17,18.1-5.53,36.04-8.79,54.7-19.77,9.28-4.76,18.65-12.32,28.05-20.14,9.37-8.52,18.45-18.16,27.76-28.38,4.51-5.15,9.08-9.98,13.78-16.07,4.5-5.94,8.99-12.04,13.46-18.28,8.99-12.5,17.98-25.06,26.75-39.72,8.75-14.27,17.41-29.14,25.97-44.59,8.6-15.62,16.82-32.41,25.27-48.83,8.39-16.37,16.68-33.32,24.86-50.85,8.31-17.12,16.53-34.85,24.64-53.18,4.03-9.19,8.03-18.52,12.01-28,2.02-4.59,4.05-9.63,5.99-13.93,2.07-4.55,4.13-9.14,6.19-13.77,4.17-9.17,8.26-18.98,12.44-27.15.25-.52.51-1.06.76-1.58-.79,1.81-1.58,3.62-2.36,5.39-4.6,10.28-8.91,22.08-13.44,32.83-4.5,10.53-8.67,22.18-13.05,33.21-4.37,11.1-8.78,22.02-13.23,32.78-4.43,10.64-8.9,21.1-13.4,31.4-4.5,10.42-8.95,20.98-13.51,31.02-4.5,10.2-9.05,20.24-13.63,30.1-4.66,9.63-9.36,19.09-14.1,28.36-9.51,18.48-19.3,35.99-29.2,52.86-4.9,8.29-9.82,16.39-14.77,24.3-4.97,7.93-10,15.1-15.16,22.53-5.07,7.24-10.16,14.29-15.27,21.13-2.56,3.48-5.12,6.91-7.68,10.3-2.58,3.03-5.17,6.01-7.76,8.93-10.41,11.75-20.87,22.67-31.35,32.74,10.48-9.97,20.94-20.77,31.37-32.42,2.59-2.92,5.18-5.89,7.76-8.91,2.57-3.31,5.14-6.66,7.7-10.07,5.16-6.86,10.29-13.91,15.41-21.17,5.04-7.35,10.1-14.26,15.19-22.38,4.96-7.91,9.89-16.01,14.79-24.3,9.95-16.56,19.62-33.99,29.29-52.36,4.75-9.29,9.46-18.75,14.13-28.4,4.64-9.88,9.23-19.94,13.79-30.16,4.56-10.19,9.04-20.71,13.43-30.75,4.57-10.36,9.1-20.9,13.58-31.62,4.43-10.63,8.83-21.44,13.18-32.41,4.4-10.92,8.54-22.66,13.1-33.08,4.51-10.37,8.71-22.04,13.43-32.5,2.32-5.24,4.63-10.53,6.93-15.87,2.2-5.23,4.76-9.97,7.14-14.87-.03.08-.07.17-.1.25.78-1.38,1.32-2.35,2.1-3.74ZM195.86,33.95s.02-.03.03-.05c-.06.21-.1.33-.03.05ZM196.03,33.29s.01,0,0,.03c0,0,0-.02,0-.03Z"/>
        </g>
        <g>
          <path class="cls-4" d="M918.36,122.11c-.42-.04-.81-.11-1.16-.23-1.29,11.54-2.62,27.02-4.69,45.97-2.49,22.22-6.36,49.31-13.97,80.97-3.74,15.83-8.71,33.09-14.89,50.95-1.57,4.65-3.13,9.04-4.81,13.62-1.61,4.63-3.27,9.19-5.08,13.97-3.59,9.44-7.55,19.08-11.89,28.86-17.64,39.26-42.33,81.94-75.5,122.83-16.59,20.35-35.52,40.39-56.15,58.69-20.61,18.22-43.13,34.94-66.87,48.73-12.16,6.99-24.61,13.49-37.11,19.45-6.08,2.87-12.57,5.68-18.86,8.54-6.29,2.66-12.78,5.44-19.2,7.93-25.46,9.89-51.5,18.14-77.58,23.63-52.08,11.54-104.38,13.23-152.76,4.84-48.69-8.14-93.41-26.61-131.53-52.9-38.11-26.34-69.56-60.48-93.18-98.92-5.97-9.44-11.52-19.46-16.45-29.5-5.12-10.1-9.67-20.39-13.82-30.73-4.09-10.56-8-20.83-11.28-31.48-1.71-5.46-3.23-10.84-4.62-16.07-1.62-5.37-3.08-10.8-4.46-16.08-1.26-5.5-2.48-10.85-3.61-16.46-1.29-5.15-2.39-10.34-3.48-15.84-1-5.24-1.99-10.52-2.87-16.13-.83-5.14-1.6-10.32-2.29-15.48-.66-5.25-.94-10.52-1.23-15.61-.31-5.29-.56-10.6-.72-15.74.03-10.41.23-20.7,1-30.84.9-10.08,1.81-19.95,3.37-29.6,1.67-9.78,3.27-19.22,5.15-28.39,1.97-9.29,4.03-18,6.19-26.61,2.36-8.6,4.84-16.94,7.34-24.81,10.35-32.26,30.77-67.11,42.4-86.99.39-.71.71-1.3,1-1.82.39-2.38-.06-4.29-1.71-4.3-1.6-.17-3.76,1.95-5.44,3.83-1.63,2.43-3.28,5.22-4.78,7.75-12.19,20.1-25.93,46.04-37.86,78.1-3.03,8.08-5.87,16.46-8.63,25.12-2.7,8.69-5.1,17.69-7.48,27.11-4.57,18.85-7.39,39.24-9.16,60.15-.87,10.6-1.06,21.41-1.09,32.35-.03,5.42.3,10.94.6,16.31.35,5.66.69,11.12,1.33,16.68.69,5.61,1.48,11.07,2.39,16.6.44,2.78.93,5.32,1.41,7.97.42,2.76.95,5.48,1.51,8.21,1.03,5.44,2.26,10.95,3.55,16.25,1.03,5.35,2.25,10.83,3.58,16.31,1.36,5.45,2.78,10.79,4.3,15.98,1.44,5.59,3,11.07,4.65,16.34,3.33,10.96,7.34,21.55,11.41,32.24,4.16,10.63,8.82,21.19,14.03,31.42,5.02,10.28,10.61,20.51,16.68,30.19,24.06,39.44,56.21,74.68,95.17,101.65,38.94,27.01,84.67,46.01,134.39,54.43,49.72,8.67,103.24,6.93,156.67-4.89,26.38-5.61,53.11-14.07,78.93-24.08,6.7-2.6,13.14-5.31,19.58-8.18,6.45-2.76,12.68-5.53,19.14-8.56,12.86-6.13,25.64-12.81,38.06-19.96,25.08-14.55,48.96-32.39,70.42-51.57,21.64-19.29,41.15-40.12,58.21-61.31,34.37-42.66,59.57-86.83,77.42-127.19,4.43-10.11,8.53-20.13,12.16-29.87,3.78-9.61,7-19.08,9.71-28.22,5.31-18.17,9.4-35.23,12.42-51.24,6.25-31.65,8.53-58.27,9.89-79.95,1.18-18.36,1.58-33.21,2.2-44.42Z"/>
          <path class="cls-1" d="M917.49,158.5c.83-8.92.62-17.52,1.34-26.61.19-2.76.36-5.4.5-8.11-.62-.7-.98-1.11-1.59-1.81h0c-.64-.05-1.19.44-1.25,1.07-.2,2.22-.39,4.22-.64,6.55-1.21,8.25-1.63,16.26-2.53,24.35-.42,3.97-.9,7.95-1.43,11.95-.54,4.41-.72,8.02-1.27,12.22-.86,8-1.95,16.07-3.26,24.2-2.65,16.36-6.21,32.97-10.68,49.7-4.1,16.56-9.11,33.29-15.01,50.05-5.86,16.82-11.97,33.51-19.6,50.38-7.54,16.77-15.97,33.46-25.26,49.96-9.03,16.49-19.96,32.8-31.08,48.44-5.68,7.95-11.56,15.81-17.63,23.55-5.8,7.38-12.78,15-19.08,22.03-13.49,14.72-27.53,28.91-41.83,41.69-14.93,12.75-30.26,24.96-46.55,35.34-31.86,21.19-66.26,36.54-99.61,49.54-33.61,13.01-67.6,21.04-101.19,26.49-33.33,5.04-66.16,5.73-97.54,2.16-7.9-.9-15.7-2.07-23.4-3.51-7.83-1.25-15.57-2.77-23.2-4.56-15.05-3.54-29.67-8.12-43.77-13.69-14.07-5.59-27.61-12.16-40.53-19.67-12.95-7.52-25.49-16.24-37.27-25.04-23.81-18.1-44.88-39.79-62.68-64.37-17.44-24.45-32.82-51.88-44.68-80.63-6.13-14.62-11.24-29.46-15.76-45.05-2.2-8.02-4.46-15.46-6.32-23.26-.97-3.96-1.89-7.95-2.74-11.97-.87-4.38-1.83-8.14-2.71-12.29-3.3-15.97-6.36-32.36-7.52-49.29-1.32-16.4-1.07-33.85.12-50.94,1.44-17.51,3.87-34.55,7.38-51.91,3.33-17.15,7.38-33.98,12.75-50.91,10.29-33.15,27.11-63.24,44.32-92.83.2-.37.4-.74.61-1.1,0-.25,0-.51.01-.76.14-1.02.18-1.73.17-2.55-.05-.32-.05-.55-.05-.75,0-.62-.46-1.15-1.09-1.21-1.71-.16-5.02-.57-5.57-.54,0,0,0,0-.01,0-.56.36-2.63,2.16-3.51,2.97-.11.19-.21.39-.32.58-.1.1-.21.2-.31.31-13.25,21.24-24.7,43.61-34.82,66.99-10.33,23.25-18.38,48.21-24.54,73.59-2.64,12.78-4.81,25.64-6.49,38.52-.86,6.47-1.6,12.94-2.21,19.41-.43,6.45-.73,12.89-.9,19.32-1.08,25.86,1.45,51.47,6.12,75.62,2.32,12.11,5.02,23.67,7.78,35.62,2.82,11.78,6.06,23.12,9.45,34.46,7.12,22.68,15.99,44.59,26.37,65.07,5.14,10.36,10.73,20.4,16.78,30.07,5.88,9.77,12.21,19.2,18.97,28.23,13.53,17.99,28.79,34.41,45.57,48.98,8.41,7.31,17.21,14.16,26.36,20.52,9,6.35,18.22,12.51,27.85,18.04,19.34,11.17,40.02,20.31,61.74,27.24,21.55,7.12,44.34,11.3,67.6,14.52,23.26,2.97,47.31,3.65,71.79,2,24.43-1.59,49.47-5.83,74.4-11.73,24.96-5.73,50.08-13.79,74.97-24.1,24.66-10.05,49.71-21.65,74.11-35.98,12-7.29,23.84-15.1,35.49-23.4,11.52-8.77,22.8-18,33.8-27.65-10.96,9.56-22.2,18.7-33.68,27.39-11.72,8.33-23.64,16.17-35.71,23.48-24.44,14.21-49.3,25.65-74.15,35.68-24.88,10.22-49.97,18.17-74.9,23.8-24.89,5.74-49.66,9.9-74.01,11.37-24.4,1.55-48.35.78-71.5-2.27-23.22-3.29-46.05-7.59-67.47-14.78-21.52-6.97-41.99-16.12-61.13-27.27-9.79-5.59-18.71-11.69-27.86-18.11-9.07-6.36-17.79-13.21-26.13-20.52-16.6-14.58-31.68-30.99-45.04-48.93-6.71-8.98-12.99-18.35-18.82-28.06-6-9.61-11.56-19.58-16.65-29.88-10.32-20.57-18.95-42.18-25.9-64.9-3.46-11.24-6.68-22.94-9.51-34.59-2.6-11.75-5.37-23.75-7.59-35.65-4.55-23.88-6.88-48.87-5.93-74.23.21-6.37.54-12.75,1-19.13.62-6.35,1.36-12.69,2.22-19.03,1.7-12.76,3.88-25.49,6.53-38.14,5.97-24.72,13.92-49.22,24.13-72.29,10.03-22.9,21.41-45.2,34.17-65.76.05-.08.11-.15.17-.22.57-.57,1.18-1.17,1.71-1.63.43-.49.63-.33.91-.59.32-.36.35-.03.68-.36.02.01.03.03.05.04,0,0,0-.01.01-.02.16.04.32.09.48.13.08.06.15.12.2.15.04.03.06.05.04.03-.02.03-.03.04-.05.05-.02.13-.04.42-.03.67-16.9,28.82-33.79,58.5-44.65,92.7-5.29,16.55-9.68,34.07-13.15,51.4-3.61,17.29-6.21,34.79-7.6,52.29-1.38,17.96-1.76,35.2-.47,52.85,1.1,17.22,4.1,33.65,7.43,50.02.73,3.94,1.86,8.32,2.61,11.9.85,4.09,1.75,8.15,2.71,12.19,1.77,7.89,4.17,15.9,6.22,23.66,4.39,15.47,9.56,30.77,15.67,45.45,11.98,29.73,27.03,56.74,45.07,81.85,18.09,24.86,39.49,46.78,63.64,65.05,12.29,9.07,24.57,17.58,37.7,25.16,13.2,7.61,27.04,14.26,41.41,19.89,14.3,5.6,29.14,10.18,44.4,13.71,7.66,1.76,15.43,3.25,23.28,4.48,7.74,1.42,15.57,2.58,23.5,3.48,31.94,3.54,65.32,2.72,99.2-2.56,33.68-5.62,67.67-13.74,101.7-27.11,33.9-13.44,67.81-28.49,100.48-50.32,16.4-10.54,32.02-23.02,47.22-36.14,14.97-13.4,28.71-27.43,42.25-42.32,6.5-7.29,13.1-14.63,19.42-22.68,6.02-7.76,11.84-15.62,17.46-23.59,11.32-15.97,22.14-32.26,31.32-49.05,9.3-16.64,17.72-33.48,25.24-50.38,7.52-17.01,13.49-33.81,19.4-50.75,5.85-16.86,10.8-33.67,14.85-50.3,4.38-16.74,7.86-33.35,10.43-49.7,1.25-8.15,2.27-16.23,3.07-24.24.5-4.02.79-8.13,1.26-11.95.51-4.06.96-8.1,1.36-12.12.9-8.12,1.29-16.16,2.36-24,.05-.5.1-.99.15-1.49-.08,1.54-.17,3.08-.28,4.62-.67,8.87-.51,17.63-1.23,26.66-.77,8.93-.84,17.65-1.58,26.66-.69,9-1.67,18.13-2.93,27.35-1.28,9.16-2.84,18.41-4.69,27.74-1.79,9.36-3.62,18.71-5.97,28.17-2.21,9.41-4.7,18.88-7.49,28.41-2.99,9.58-6.27,19.21-9.85,28.84-7.24,19.32-15.95,38.83-25.78,58.18-4.88,9.56-10.04,19.07-15.48,28.51-5.47,9.48-11.45,18.73-17.74,28.18-6.2,9.26-12.66,18.42-19.38,27.44-3.34,4.53-6.75,9.03-10.22,13.49-3.61,4.35-7.28,8.66-11,12.92-14.99,17.14-30.9,33.54-47.59,49,16.73-15.43,32.68-31.79,47.73-48.91,3.73-4.26,7.41-8.57,11.02-12.92,3.51-4.44,6.95-8.93,10.33-13.44,6.8-9.08,13.33-18.31,19.6-27.64,6.11-9.26,12.24-18.48,17.83-28.19,5.44-9.46,10.61-18.98,15.5-28.55,10.01-19.35,18.58-38.68,26.09-58.22,3.58-9.67,6.88-19.32,9.88-28.93,2.85-9.62,5.41-19.19,7.68-28.69,2.29-9.5,4.16-18.91,5.95-28,1.89-9.45,3.5-18.82,4.81-28.09,1.28-9.17,2.27-18.25,2.99-27.21.8-9.03.79-17.72,1.67-26.74Z"/>
          <path class="cls-1" d="M131.71,49.29s.02.02.03.03c-.11,0-.18-.02-.03-.03Z"/>
          <path class="cls-1" d="M132.06,49.32s0-.01.01-.02c.01,0,0,.02-.01.02Z"/>
        </g>
        <g>
          <path class="cls-4" d="M440.87,44.54c-.61-18.39-1.66-33.2-2.14-44.42-.42,0-.82-.03-1.18-.12-.16,11.62.02,27.15-.19,46.21-.31,22.36-1.52,49.7-6.01,81.95-2.18,16.12-5.44,33.78-9.85,52.16-1.11,4.78-2.23,9.3-3.46,14.02-1.15,4.77-2.36,9.47-3.69,14.4-2.65,9.75-5.65,19.73-9.02,29.88-13.73,40.79-34.14,85.68-63.17,129.6-14.52,21.87-31.42,43.66-50.17,63.89-18.73,20.14-39.52,38.98-61.81,55.01-11.42,8.14-23.18,15.82-35.04,22.98-5.77,3.45-11.96,6.88-17.93,10.34-6,3.26-12.19,6.66-18.34,9.76-24.38,12.33-49.49,23.08-74.9,31.08C56.07,570.38.1,580.64.07,581.18c-.04.76-.01,7.59-.01,9.32,28.1-3.21,56.49-9.44,84.58-18.6,25.71-8.15,51.49-19.18,76.21-31.65,6.42-3.24,12.56-6.57,18.69-10.05,6.15-3.38,12.08-6.74,18.21-10.39,12.21-7.35,24.27-15.24,35.94-23.58,23.54-16.93,45.57-37.01,65.06-58.19,19.66-21.31,37.04-43.94,51.95-66.69,30.05-45.81,50.82-92.22,64.66-134.13,3.42-10.5,6.53-20.87,9.19-30.91,2.82-9.94,5.11-19.67,6.91-29.03,3.51-18.6,5.92-35.98,7.37-52.21,3.13-32.11,2.81-58.82,2.06-80.53Z"/>
          <path class="cls-1" d="M442.44,63.2c-.09-9.07-.95-17.72-.95-26.78-.04-8.96-1.09-17.5-1.26-26.62-.08-2.77-.16-5.41-.29-8.12-.68-.64-1.08-1.01-1.76-1.64-.64.01-1.14.55-1.14,1.19.02,2.23.02,4.24,0,6.58-.4,8.33-.03,16.34-.14,24.48-.03,3.99-.12,8-.26,12.03-.11,4.44.07,8.05-.08,12.28-.08,8.04-.38,16.19-.89,24.41-1.04,16.54-2.97,33.42-5.79,50.5-2.47,16.88-5.82,34.02-10.06,51.28-4.19,17.31-8.65,34.52-14.59,52.05-5.87,17.42-12.63,34.86-20.27,52.18-7.38,17.29-16.67,34.59-26.21,51.24-4.88,8.47-9.96,16.86-15.25,25.16-5.05,7.91-11.25,16.17-16.84,23.78-11.99,15.96-24.58,31.45-37.57,45.56-13.62,14.15-27.69,27.79-42.89,39.71-29.64,24.19-62.38,42.82-94.31,59.02-32.18,16.22-65.22,27.53-98.12,36.23-18.14,4.59-35.79,7.77-53.72,9.66-.05.09.01,4.5-.06,4.81,17.88-2,35.94-5.32,54.01-9.97,32.97-8.87,66.01-20.27,98.58-36.89,32.43-16.68,64.71-34.96,95.09-59.87,15.3-12.08,29.62-26.03,43.48-40.57,13.59-14.8,25.9-30.1,37.92-46.23,5.76-7.89,11.62-15.84,17.12-24.47,5.23-8.31,10.26-16.7,15.08-25.18,9.71-17,18.89-34.26,26.39-51.87,7.63-17.47,14.37-35.05,20.21-52.6,5.82-17.66,10.14-34.96,14.36-52.4,4.18-17.35,7.47-34.56,9.87-51.51,2.73-17.09,4.57-33.95,5.54-50.48.45-8.23.68-16.38.69-24.42.11-4.05,0-8.17.09-12.01.11-4.09.17-8.15.17-12.2.1-8.17-.29-16.21.01-24.11,0-.5,0-1,0-1.5.07,1.54.13,3.09.17,4.62.2,8.89,1.21,17.6,1.38,26.65.1,8.96.89,17.64,1.03,26.69.19,9.03.1,18.2-.25,27.5-.38,9.24-1.03,18.6-1.96,28.07-.87,9.49-1.78,18.98-3.19,28.62-1.28,9.58-2.84,19.25-4.69,29-2.04,9.83-4.37,19.73-6.99,29.67-5.32,19.94-12.09,40.2-19.98,60.42-3.92,9.99-8.13,19.96-12.62,29.88-4.52,9.97-9.57,19.76-14.91,29.78-5.27,9.82-10.81,19.56-16.61,29.2-2.88,4.84-5.83,9.64-8.85,14.42-3.17,4.68-6.4,9.33-9.69,13.94-13.25,18.52-27.48,36.39-42.58,53.41,15.14-16.98,29.43-34.82,42.73-53.33,3.3-4.61,6.53-9.25,9.71-13.94,3.06-4.77,6.05-9.56,8.97-14.38,5.88-9.7,11.49-19.52,16.82-29.42,5.18-9.82,10.38-19.59,15-29.79,4.5-9.94,8.71-19.93,12.64-29.93,8.08-20.23,14.72-40.31,20.3-60.48,2.62-9.97,4.96-19.9,7.01-29.76,1.9-9.85,3.51-19.63,4.84-29.31,1.35-9.68,2.3-19.22,3.19-28.45.97-9.59,1.65-19.07,2.05-28.42.38-9.25.49-18.38.33-27.37Z"/>
          <path class="cls-1" d="M268.01,468.31c-10.85,9.44-21.95,18.4-33.25,26.85-22.94,16.52-46.57,30.33-70.32,42.73-23.76,12.59-47.96,22.96-72.22,30.99-24.21,8.14-48.46,14.7-72.55,18.53-6.53,1.06-13.11,1.94-19.6,2.66,0,.4,0,.79,0,1.19,6.43-.74,12.92-1.62,19.39-2.69,24.16-3.96,48.67-10.62,72.91-18.93,24.29-8.13,48.5-18.6,72.27-31.29,23.56-12.4,47.37-26.39,70.25-43.03,11.23-8.43,22.26-17.35,33.04-26.74,10.62-9.85,20.94-20.13,30.94-30.81-9.97,10.59-20.27,20.78-30.85,30.54Z"/>
        </g>
      </g>
    </g>
  </g>
</svg>