<?xml version="1.0" encoding="UTF-8"?>
<svg xmlns="http://www.w3.org/2000/svg" xmlns:xlink="http://www.w3.org/1999/xlink" viewBox="0 0 1920 1080">
  <defs>
    <style>
      .cls-1 {
        fill: #436e2d;
      }

      .cls-1, .cls-2, .cls-3, .cls-4, .cls-5, .cls-6, .cls-7, .cls-8, .cls-9 {
        stroke-width: 0px;
      }

      .cls-2, .cls-3 {
        fill: #4a6c2f;
      }

      .cls-3 {
        opacity: .23;
      }

      .cls-3, .cls-9 {
        mix-blend-mode: overlay;
      }

      .cls-10 {
        isolation: isolate;
      }

      .cls-4 {
        fill: none;
      }

      .cls-5 {
        fill: #6cac96;
      }

      .cls-6 {
        fill: #579485;
      }

      .cls-7 {
        fill: #7dad3f;
      }

      .cls-8 {
        fill: #c2c757;
      }

      .cls-11 {
        clip-path: url(#clippath);
      }

      .cls-9 {
        fill: #000;
        opacity: .18;
      }
    </style>
    <clipPath id="clippath">
      <rect class="cls-4" width="1920" height="1080"/>
    </clipPath>
  </defs>
  <g class="cls-10">
    <g id="Capa_2" data-name="Capa 2">
      <g id="ELEMENTS_2" data-name="ELEMENTS 2">
        <g class="cls-11">
          <g>
            <path class="cls-8" d="M630.72,361.61c-10.88,13.98-22.69,26.01-35.1,34.37-6.16,4.05-12.47,7.72-18.82,11.12-3.19,1.62-6.27,3.09-9.45,4.6-3.16,1.71-6.32,3.32-9.62,4.8-12.72,5.65-25.83,11.13-39,14.76-26.6,8.05-53.99,10.96-81.69,8.35-27.63-2.33-55.58-10.56-83.19-23.51-27.6-13.01-54.99-31.19-81.36-53.28-6.54-5.27-13.13-11.1-19.57-17.1-6.48-5.72-12.93-11.89-19.26-18.2-6.33-6.5-12.61-12.41-18.87-19.11-3.02-3.16-6.12-6.52-9.25-10.02-2.95-3-5.96-6.18-9-9.41-3.05-3.31-6.07-6.66-8.98-10.04-2.96-2.95-6.02-6.07-8.98-9.31-1.5-1.56-2.99-3.12-4.47-4.86-1.44-1.55-2.83-2.98-4.33-4.64-2.99-3.25-5.92-6.53-8.9-9.96-2.95-3.48-5.77-7.25-8.71-11.04-2.78-3.65-5.66-7.27-8.4-11.3-5.55-8.09-11.03-15.96-16.3-24.47-10.39-16.93-20.48-33.94-29.64-52.25-4.56-9.33-8.95-18.25-13.17-27.37-4.2-9.21-8.29-18.28-12.23-27.39C56.75,60.41,43.83,25.94,33.57-3.22c-1.3-3.6-2.73-7.55-3.97-11.34-.9-3.74-1.91-8.49-1.62-11.54.2-3.19,1.4-3.56,2.77-2.14.27.69.58,1.48.96,2.43,10.48,27.9,27.65,78.21,43.65,111.96,3.94,8.16,8.09,16.67,12.35,25.28,4.31,8.27,8.64,16.57,13.24,25.28,4.56,8.48,9.27,16.84,14.1,25.8,4.77,8.68,9.76,16.66,14.81,25.05,5.11,8.21,10.39,15.9,15.73,23.75,2.68,3.6,5.46,7.27,8.24,10.92,2.68,3.53,5.42,7.31,8.26,10.56,2.8,3.14,5.62,6.28,8.43,9.4,3.06,3.46,5.98,6.56,8.88,9.72,3.05,3.25,5.95,6.34,8.88,9.23,3.11,3.53,6.1,6.84,9.18,10.33,3.01,3.11,6.11,6.38,9.22,9.5,2.97,3.3,6.06,6.69,9.23,10.03,6.17,6.61,12.35,12.46,18.71,18.95,6.28,6.17,12.65,12.3,19.12,18.12,6.38,5.95,12.95,11.74,19.43,16.96,26.1,21.91,53.11,39.72,80.45,52.74,27.33,12.82,54.99,20.96,82.37,23.2,27.29,2.6,54.41-.26,80.66-8.27,13.19-3.55,26.12-8.98,38.82-14.71,3.21-1.42,6.42-3.17,9.57-4.61,3.11-1.8,6.37-3.23,9.41-4.81,6.24-3.38,12.47-7.02,18.58-11.02,11.9-8.07,23.17-19.5,33.73-32.93,10.56-13.57,20.52-29.33,29.64-46.25,18.19-34.15,33.57-73.24,46.45-112.38,3.17-9.81,6.22-19.66,9.13-29.52,1.47-4.99,2.86-9.79,4.25-14.74,1.43-4.75,2.79-9.33,4.2-14.26,5.52-18.7,10.65-37.46,15.17-55.43,9.11-35.71,16.57-68.37,22.85-95.58,6.18-27,11.42-48.13,15.43-61.53.95-3.51,2-6.17,2.79-8.72.39-1,.75-2.06,1.12-3.28.37-.69.65-1.58.98-2.41,1.22-2.73,1.8-4.58,1.8-4.57,0,0-.59,1.85-1.68,5.2-.29.83-.62,1.67-.91,2.5-.34,1.19-.7,2.34-1.08,3.76-.7,2.64-1.6,5.19-2.48,8.84-3.6,14.18-8.11,36.46-13.68,64.56-5.56,28.21-12.09,62.53-20.47,99.89-4.16,19.13-8.79,38.64-13.86,58.75-2.58,10.06-5.39,20.04-8.43,29.69-2.97,10.05-6.13,20.1-9.37,30.12-13.07,39.79-28.75,79.7-47.47,114.74-9.31,17.44-19.48,33.57-30.45,47.6Z"/>
            <path class="cls-1" d="M655.42,323.6c2-3.36,3.98-6.76,5.96-10.22,1.89-3.8,3.77-7.65,5.63-11.55,3.75-7.68,7.44-15.55,11.07-23.61,3.69-8.26,7.29-16.24,10.7-24.96,3.39-8.7,6.72-17.57,9.99-26.63,6.58-18.42,12.94-37.44,18.84-57.37,2.92-10,5.78-20.16,8.57-30.49,2.67-10.55,5.26-21.26,7.79-32.12,2.61-10.72,5.01-21.92,7.5-33,2.51-10.95,4.95-22.07,7.32-33.35,2.37-11.4,4.67-22.95,6.89-34.67,2.25-11.65,4.18-23.87,6.64-35.06,2.45-11.41,4.48-23.8,7.09-34.76,2.59-11.06,5.07-23.06,8.13-33.4.01.02.02.04.03.06h0c.88-2.52,1.76-5.06,2.63-7.61.27.84.54,1.69.82,2.53-.94,2.32-1.88,4.63-2.83,6.91.01.03.03.05.04.08-1.43,4.27-2.82,8.35-4.21,13.17-1.23,4.79-2.48,9.53-3.74,14.23-2.59,8.81-4.78,19.21-7.17,29-1.16,4.93-2.33,9.83-3.51,14.68-1.11,4.59-2.16,9.92-3.29,14.8-2.14,10.06-4.33,19.97-6.58,29.75-4.55,19.52-9.32,38.46-14.3,56.84-4.77,18.75-9.76,36.95-14.96,54.6-5.24,17.71-10.19,35.74-15.73,52.69-5.54,16.78-11.28,33-17.21,48.65-5.88,16.03-12.38,30.06-18.88,44.01-3.23,6.97-6.5,13.8-9.82,20.47-3.48,6.85-7.07,12.45-10.55,18.35-7.24,11.77-14.37,22.93-21.99,33.05-7.78,9.43-15.58,18.6-23.81,25.01-16.29,14.26-33.31,20.8-50.06,29.61-16.8,8.6-33.89,12.98-50.9,17.97-17.19,4.35-34.6,6.07-52.16,5.21-4.36-.24-8.73-.64-13.11-1.2-4.38-.2-8.77-.57-13.17-1.09-8.78-1.08-17.59-2.8-26.42-5.17-8.88-2.38-17.79-5.41-26.71-9.08-8.88-3.67-17.67-8.11-26.65-12.2-17.82-8.68-35.71-19.94-53.59-33.78-17.97-14.21-35.59-29.46-53.57-47.32-8.95-8.57-17.89-17.91-26.73-27.45-4.39-5-9.02-9.5-13.41-14.49-2.26-2.47-4.53-4.99-6.79-7.55-1.98-2.23-4.48-4.59-6.64-7.05-9.07-9.8-18.11-19.05-27.13-30.88-9.29-11.85-18.03-25.02-27.07-39.49-8.79-14.17-17.46-29.44-26-45.61-8.59-15.93-17.28-32.76-25.5-50.04C59.63,58.08,45.05,15.23,29.77-25.89c.35.56.7,1.12,1.05,1.68-.09.28-.3-.13-.37.06-.2-.03-.48-.3-.48-.3,0,0,.1.25.02-.06.03-.09-.05.15-.14.41-.05.33-.1.67-.15,1-.03.09-.06.17-.09.26h0s-.02.06-.03.09h0c-.04.66.1-.83.04-.68.03.08.07.17.1.25,0,.03-.02.06-.03.09.15.71-.04.68.13,1.4.12.61,0,.95.24,1.91.24,1.36.59,2.94.89,4.39-.13-.41-.25-.82-.38-1.22,10.68,30.58,21.99,59.91,33.34,88.16,11.29,28.33,23.22,54.27,35.23,78.42,6.23,11.63,12.49,22.91,18.79,33.84,3.13,5.45,6.26,10.82,9.4,16.1,3.2,5.03,6.41,9.97,9.62,14.82,12.76,19.48,25.85,35.33,38.93,49.24,6.5,6.98,13.18,13.82,19.66,21.23,6.5,6.98,13.11,14.04,19.55,20.88,13.01,13.88,25.93,26.61,38.93,38.43,6.48,6,12.96,11.66,19.45,16.98,6.47,5.63,12.94,10.93,19.42,15.9,12.92,9.96,25.85,18.6,38.75,25.9,6.48,3.64,12.95,6.94,19.41,9.91,6.52,3,12.83,6.29,19.37,8.89,12.87,5.42,25.71,9.52,38.49,12.28,12.8,3.14,25.51,3.67,38.34,5.07,12.72,1,25.37.67,37.92-1.02,12.55-1.55,24.91-5.1,37.31-8.75,12.44-3.44,24.78-8.26,36.98-14.48,12.22-5.91,24.53-11.6,36.64-19.7,5.95-4.53,11.86-9.41,17.72-14.66,5.69-6.05,11.32-12.45,16.89-19.2,8.42-11.85,16.66-24.52,24.7-38.01ZM613.79,381.17c-5.82,5.24-11.69,10.13-17.6,14.67-12.07,8.32-24.45,14.21-36.56,20.24-12.18,6.37-24.51,11.34-36.94,14.94-12.38,3.91-24.86,7.55-37.4,9.32-12.56,1.86-25.22,2.36-37.95,1.53-12.81-1.24-25.44-1.58-38.25-4.56-12.84-2.61-25.75-6.57-38.68-11.87-6.43-2.6-12.88-5.75-19.29-8.74-6.48-2.89-12.96-6.12-19.46-9.68-12.95-7.11-25.92-15.56-38.88-25.34-6.5-4.95-12.99-10.23-19.48-15.85-6.51-5.31-13.02-10.96-19.52-16.95-12.94-11.59-26.03-24.25-39.03-37.75-6.45-6.98-12.87-13.62-19.4-20.7-6.6-7.33-13.01-13.82-19.62-20.8-13.19-13.88-26.58-29.78-39.52-49.69-3.24-4.8-6.47-9.69-9.7-14.67-3.2-5.31-6.39-10.72-9.57-16.21-6.35-10.89-12.66-22.14-18.94-33.75-12.3-24.69-24.43-50.81-35.8-79.25C50.74,47.92,39.54,18.96,28.6-12.2c-.05-.23-.1-.45-.14-.68-.1-.26-.2-.51-.3-.77-.38-1.91-.83-3.97-1.17-6.22-.2-.99-.41-2.59-.55-3.75-.16-1.17-.17-2.64-.15-3.81,0-.37,0-.74,0-1.11,0-.02.02-.04.02-.07.04-.27.08-.55.12-.82.02-.06.04-.11.06-.17.05-.34.1-.69.14-1.03.09-.25.05-.81.37-1.08.17-.49.37-1.08.66-1.3.52-.55.88-.51,1.42-.55.49.18.91.45,1.51,1.02.15.08.3.16.45.23.19.49.39.99.58,1.48,15.5,41.57,30.13,84.06,46.69,118.3,8.44,17.75,16.85,33.78,25.41,49.49,8.63,16.16,17.13,31.04,25.97,45.43,8.68,13.7,17.61,26.97,26.33,37.93,8.94,11.62,18.04,20.85,26.97,30.45,2.32,2.45,4.48,4.5,6.91,7.33,2.25,2.51,4.49,4.98,6.74,7.4,4.4,4.84,8.75,9.03,13.34,14.13,9.01,9.62,17.78,18.68,26.77,27.27,17.62,17.11,35.7,32.75,53.26,46.97,17.76,13.97,35.55,25.37,53.28,34.21,8.71,4.12,17.76,8.74,26.59,12.5,8.81,3.75,17.61,6.87,26.38,9.35,8.78,2.45,17.54,4.27,26.27,5.46,4.42.59,8.83,1.02,13.24,1.28,4.39.6,8.77,1.03,13.14,1.31,17.38,1.06,34.63-.44,51.66-4.52,17.09-4.79,34.28-9,50.99-17.19,16.59-8.38,33.92-15.19,49.9-28.95,8.22-6.26,15.92-15.22,23.59-24.32,7.31-9.7,14.61-20.97,21.85-32.58,3.38-5.7,7.19-11.42,10.39-17.72,3.36-6.63,6.67-13.42,9.94-20.36,6.4-13.71,12.97-27.73,18.76-43.56,5.93-15.51,11.67-31.59,17.21-48.23,5.59-16.68,10.61-34.42,15.8-52.08,5.21-17.52,10.22-35.59,15.01-54.21,5.02-18.3,9.83-37.19,14.43-56.65,2.28-9.68,4.5-19.51,6.68-29.48,1.2-5.05,2.08-9.89,3.36-15.2,1.18-4.75,2.36-9.53,3.51-14.35,2.38-9.76,4.57-20.12,7.34-29.27,1.27-4.75,2.53-9.55,3.77-14.4,1.33-4.24,2.85-8.91,4.25-13.1.02-.08.03-.16.05-.23h0c.95-2.19,1.89-4.4,2.83-6.63.26.82.52,1.64.77,2.46-.86,2.59-1.72,5.15-2.59,7.7.02-.09.04-.18.05-.27-1.43,5.26-3.06,10.39-4.25,15.94-1.27,5.68-2.55,11.31-3.85,16.89-2.69,11.15-4.65,23.4-7.15,34.43-2.54,11.09-4.42,23.4-6.71,34.95-2.23,11.59-4.54,23.02-6.91,34.29-2.41,11.36-4.9,22.56-7.45,33.6-2.44,10.67-4.88,21.85-7.47,32.71-2.57,10.89-5.22,21.63-7.93,32.21-2.8,10.35-5.66,20.52-8.59,30.53-6.08,19.84-12.33,38.77-19.02,56.89-3.27,9.05-6.61,17.93-10,26.62-3.49,8.93-7.17,16.66-10.75,24.82-3.67,8.08-7.41,15.97-11.2,23.67-1.88,3.82-3.78,7.6-5.69,11.33-1.98,3.45-3.97,6.85-5.97,10.2-8.07,13.38-16.34,25.95-24.78,37.69-5.58,6.87-11.23,13.39-16.93,19.55Z"/>
          </g>
          <g>
            <path class="cls-8" d="M549.53,256.18c-17.82,22.6-38.25,44.3-60.44,62.97-10.99,9.2-22.42,17.99-34.04,26.24-5.84,4.1-11.5,7.9-17.37,11.74-5.85,3.94-11.71,7.72-17.87,11.45-23.7,14.32-48.56,27.28-73.57,37.37-50.58,20.88-102.99,31.85-153.46,31.91-50.42.3-98.75-10.5-141.78-30.37-43.03-19.83-80.79-48.98-111.31-83.66-7.65-8.49-14.93-17.59-21.65-26.85-6.9-9.18-13.31-18.78-19.25-28.52-5.86-9.83-11.64-19.56-16.82-29.78-2.53-4.9-5.01-10.03-7.4-15.29-2.39-4.85-4.72-9.86-7-15-2.26-5.17-4.4-10.36-6.34-15.45-2.19-5-4.36-10.21-6.31-15.39-1.02-2.59-2.01-5.17-2.91-7.82-.93-2.52-1.85-4.95-2.76-7.61-1.85-5.28-3.58-10.52-5.23-15.93-1.59-5.37-2.87-10.69-4.19-16.2-1.23-5.24-2.51-10.62-3.41-15.96-1.86-10.78-3.54-21.46-4.52-32.05-1.87-20.9-2.62-41.48-1.38-60.83.72-9.69,1.52-18.97,2.68-27.99,1.22-9.01,2.57-17.76,4.16-26.24,6.21-33.64,15.26-61.57,23.79-83.47,1.04-2.75,2.18-5.79,3.37-8.46,1.33-2.14,3.1-4.6,4.7-4.71,1.63-.27,2.4,1.54,2.43,3.94-.19.56-.41,1.2-.67,1.96-8.01,21.6-22.1,59.44-26.72,93.01-1.1,8.18-2.1,16.83-2.94,25.71-.64,8.86-1.16,17.79-1.5,27.28-.27,9.36-.21,18.93-.16,28.85.13,9.77.94,19.64,1.8,29.73,1,10.11,2.58,20.28,4.35,30.54,1.04,5.04,2.21,10.23,3.43,15.38,1.17,4.97,2.36,10.11,3.92,15.16,1.58,4.96,3.23,9.93,4.93,14.85,1.83,5.38,3.73,10.4,5.62,15.39,2.03,5.22,4.01,10.14,6.17,15,2.09,5.32,4.21,10.39,6.4,15.59,2.28,4.96,4.65,10.05,7.18,15.07,2.27,4.91,4.7,9.95,7.33,15.03,5.07,9.92,10.7,19.36,16.55,29.06,5.88,9.47,12.14,18.81,18.93,27.88,6.59,9.03,13.79,17.94,21.3,26.21,29.92,33.77,66.79,61.95,108.89,81.31,42.09,19.3,89.34,29.76,138.7,29.35,49.1-.11,100.32-10.82,149.62-31.19,24.73-9.91,48.95-22.54,72.32-36.69,5.9-3.56,11.81-7.42,17.54-11.13,5.7-3.9,11.6-7.8,17.09-11.67,11.28-8.04,22.41-16.59,33.18-25.58,21-17.68,40.29-38.05,57.44-59.56,17.15-21.6,32.34-44.61,45.16-67.52,25.6-46.01,42.54-92.31,53.12-134.03,2.59-10.38,4.82-20.56,6.72-30.48.96-5.02,1.8-9.79,2.59-14.64.87-4.8,1.64-9.39,2.39-14.24,3-18.66,4.91-36.52,5.85-52.76,2.02-32.5,1.14-59.85-.24-82.17-1.44-22.07-3.04-39.37-3.63-51.36-.24-2.98-.16-5.77-.27-8.07.02-1.04,0-2.05-.07-3.14.1-.88.05-1.69.08-2.57.17-3.07.07-4.76.07-4.76,0,0,.1,1.68.22,4.8.01.81,0,1.68,0,2.49.08,1.03.13,2.07.24,3.27.21,2.21.23,4.7.57,7.62,1.17,11.64,3.77,28.23,6.15,49.8,2.4,21.59,4.76,48.2,4.08,80.46-.21,16.29-1.29,33.8-3.37,52.61-1.09,9.47-2.62,19.35-4.68,29.47-1.89,10.22-4.2,20.79-6.81,31.52-10.6,42.84-27.78,90.7-54.26,138.66-13.13,23.82-28.75,47.71-46.73,70.45Z"/>
            <path class="cls-1" d="M587.92,199.69c2.93-4.84,5.8-9.72,8.6-14.63,2.64-5,5.22-10.01,7.73-15.06,5.06-10.04,9.84-20.18,14.34-30.38,4.56-10.39,8.85-20.54,12.6-30.82,3.72-10.24,7.16-20.5,10.31-30.76,6.33-20.76,11.54-41.48,15.33-61.76,1.85-10.11,3.42-20.16,4.71-30.11,1.1-9.87,1.92-19.63,2.46-29.28.68-9.72.86-19.25,1.01-28.78.21-9.51.14-18.89-.18-28.14-.35-9.3-.97-18.45-1.84-27.44-.83-9.01-2.27-17.6-3.06-26.53-.86-9.01-2.53-17.62-3.4-26.47-.92-8.86-2.36-17.79-2.98-26.9.01-.01.03-.02.05-.03h0c-.04-2.44-.09-4.88-.17-7.31.48-.12.96-.25,1.45-.37-.05,2.46-.12,4.92-.21,7.38.02-.01.04-.03.06-.04.12,4.04.18,7.96.43,12.19.37,3.97.7,7.96.96,11.97.3,7.9,1.3,15.89,1.82,24.04.31,4.03.56,8.09.76,12.18.2,3.84.63,7.93.83,11.98.6,8.02.99,16.16,1.17,24.4.3,16.55-.25,33.51-1.68,50.76-1.11,17.08-3.07,34.49-5.92,52.11-2.89,17.71-5.87,35.29-10.33,53.34-4.49,17.94-9.87,35.98-16.15,53.98-6.14,18.13-13.98,36.04-22.37,53.73-4.16,8.81-8.53,17.57-13.12,26.25-4.83,9.02-10.06,17.39-15.2,25.7-10.76,17-21.87,33.2-34.29,48.99-12.71,15.55-25.93,30.55-40.26,43.77-28.4,27.15-59.2,47.84-90.26,66.94-31.21,19.05-63.28,32.93-95.48,44.29-32.45,11.05-65.2,17.64-97.26,19.67-7.96.49-15.88.71-23.75.64-7.95.15-15.86.02-23.71-.39-15.64-.84-31.05-2.78-46.11-5.82-15.13-3.06-29.9-7.21-44.22-12.42-14.24-5.2-27.81-11.46-41.49-18.26-26.94-13.82-51.81-31.7-73.93-53.06-22.11-21.61-41.61-45.61-58.55-72.82-8.56-13.4-16.29-27.58-23.29-42.05-3.36-7.29-7.1-14.76-10.22-22.23-1.65-3.81-3.24-7.65-4.78-11.54-1.36-3.4-3.22-7.52-4.63-11.27-6.11-15.54-11.91-31.21-15.97-47.98-4.32-17.15-6.94-34.2-8.68-52.13-1.65-17.47-2.12-35.15-1.55-52.81.41-17.67,1.72-35.69,4.06-52.9,4.85-36.07,16.62-68.62,28.44-100.36-.09.66-.18,1.31-.26,1.97-.18-.09-.09-.5-.22-.56-.09-.32-.1-.81-.1-.81s-.07.21.04.02c.06.03-.1-.05-.26-.14-.18-.02-.37-.03-.56-.05-.06-.03-.11-.06-.17-.09h0s-.04-.02-.06-.03h0c-.33.07.45,0,.35-.06-.02.07-.05.14-.07.21-.02,0-.04-.02-.06-.03-.26.38-.35.06-.6.47-.23.3-.46.18-.79.74-.53.63-1.11,1.48-1.64,2.24.13-.28.26-.55.39-.83-9.15,22.68-16.59,46.86-22.58,71.42-6.07,24.49-9.66,50-11.26,75.37-.42,12.92-.36,25.83.16,38.69.25,6.39.62,12.77,1.1,19.13.65,6.37,1.43,12.71,2.32,19.02,3.45,25.14,10.07,49.35,18.68,72.09,4.24,11.33,9.05,22.68,13.64,33.8,4.8,10.98,10,21.94,15.35,32.42,10.78,21.18,23.01,40.98,36.74,59.45,6.8,9.26,14,18.12,21.57,26.55,7.42,8.56,15.23,16.7,23.39,24.38,16.26,15.36,33.95,28.91,52.83,40.4,9.48,5.75,19.25,10.99,29.28,15.69,10.12,4.74,19.96,9.2,30.58,13.02,20.78,7.67,42.53,13.14,64.92,16.29,22.34,3.38,45.57,3.67,69.01,2.89,23.33-1,47.05-4.38,70.81-10.13,23.73-5.66,47.41-14.04,70.93-24,23.57-9.85,46.91-22.03,69.65-36.4,22.74-14.18,45.25-29.74,66.87-47.96,10.63-9.29,21.01-19.07,31.11-29.31,9.8-10.54,19.29-21.49,28.43-32.8,13.76-18.12,26.59-37.02,38.39-56.5ZM521.03,289.26c-10.04,10.19-20.35,19.93-30.91,29.18-21.55,18.33-44.22,34.09-66.77,48.25-22.73,14.46-46.08,26.74-69.67,36.7-23.54,10.13-47.47,18.64-71.25,24.42-23.83,5.86-47.63,9.35-71.06,10.44-23.47.86-46.63.68-69.09-2.6-22.59-3.07-44.54-8.5-65.52-16.16-10.45-3.79-20.58-8.25-30.55-12.95-10.11-4.68-19.96-9.9-29.51-15.65-19.04-11.45-36.91-24.99-53.35-40.36-8.22-7.73-16.09-15.91-23.57-24.52-7.63-8.48-14.88-17.39-21.73-26.71-13.76-18.38-26.29-38.43-37.22-59.53-5.3-10.58-10.45-21.2-15.27-32.31-4.79-11.29-9.44-22.2-13.82-33.74-8.77-22.98-15.7-47.77-19.11-73.43-.94-6.36-1.75-12.75-2.45-19.18-.51-6.48-.91-12.98-1.18-19.5-.57-12.98-.66-26.02-.27-39.06,1.68-26.06,5.28-52.03,11.44-76.72,5.92-24.78,13.33-48.79,22.71-72,.08-.12.17-.24.25-.36.07-.21.14-.42.21-.63.72-.96,1.48-2.05,2.39-3,.37-.5,1.03-1.12,1.52-1.56.48-.47,1.18-.76,1.75-.93.18-.06.35-.13.53-.2.01,0,.03.02.04.02.15.01.3.02.45.03.04.02.07.04.11.06.19.01.38.02.56.04.17.09.41-.08.7.38.32.17.7.38.95.79.52.7.68,1.27.98,2.12.16.8.24,1.51.28,2.54.04.25.08.5.12.75-.14.4-.27.79-.41,1.19-11.83,32.12-23.2,64.66-27.6,99.09-2.36,17.6-3.44,34.89-3.75,52.35-.45,17.7.09,34.91,1.71,52.4,1.78,17.04,4.55,34.27,8.69,50.2,4.07,16.48,9.92,32.09,15.93,47.25,1.59,3.93,3.19,7.47,4.8,11.63,1.54,3.81,3.13,7.58,4.77,11.31,3.18,7.36,6.69,14.3,10.25,21.81,7.15,14.58,14.75,28.31,23.31,41.65,16.66,26.27,36.55,50.63,57.96,71.69,21.78,21.12,46.29,38.84,72.87,52.56,13.12,6.62,26.99,13.04,41.04,18.21,14.02,5.16,28.49,9.29,43.32,12.36,14.84,3.05,30.04,5.03,45.48,5.92,7.82.44,15.71.6,23.64.48,7.83.08,15.72-.11,23.65-.59,31.52-1.91,63.73-8.27,95.69-19,32.14-11.18,64.23-24.97,95.08-43.59,30.6-18.58,61.82-39.65,89.54-66.03,14.25-13.04,27.24-27.72,39.74-42.86,11.88-15.06,23.26-31.46,33.99-48.29,4.99-8.01,10.55-16.73,14.98-24.99,4.64-8.67,9.08-17.43,13.29-26.25,8.25-17.33,16.19-35.28,22.23-53.09,6.3-17.85,11.71-35.76,16.24-53.58,4.59-17.93,7.72-35.43,10.59-53.01,2.91-17.53,4.95-34.87,6.12-51.89,1.51-17.25,2.14-34.22,1.92-50.8-.12-8.24-.44-16.38-.97-24.4-.18-4.23-.63-7.82-.86-12.25-.17-4.03-.39-8.04-.66-12.02-.51-8.12-1.49-16.08-1.72-24.42-.27-4.05-.6-8.07-.98-12.07-.13-3.89-.25-8.27-.38-12.2-.01-.06-.02-.11-.03-.17h0c.12-2.42.21-4.84.29-7.25.46-.11.92-.22,1.39-.33.1,2.43.18,4.86.23,7.3-.01-.06-.03-.13-.04-.19.42,4.44.6,9.17,1.23,13.38.61,4.39,1.15,8.82,1.62,13.28.86,9.08,2.56,17.51,3.28,26.44.69,9.04,2.2,17.59,2.98,26.63.84,8.95,1.43,18.06,1.76,27.32.31,9.36.35,18.86.12,28.5-.19,9.26-.4,18.85-1.01,28.61-.59,9.75-1.45,19.62-2.6,29.59-1.29,9.99-2.87,20.06-4.72,30.21-4.02,20.54-9.12,41.07-15.63,61.85-3.16,10.27-6.6,20.55-10.33,30.8-3.83,10.53-8.27,20.67-12.69,30.85-4.56,10.28-9.41,20.5-14.53,30.62-2.55,5.03-5.16,10.04-7.85,15.03-2.81,4.91-5.68,9.79-8.62,14.63-11.86,19.47-24.74,38.34-38.55,56.43-9.16,11.41-18.67,22.44-28.51,33.07Z"/>
          </g>
          <g>
            <g>
              <path class="cls-8" d="M1845.44,266.43c-13.22,8.55-26.73,15.24-39.82,18.76-6.46,1.66-12.97,2.98-19.43,4.05-3.23.47-6.31.84-9.5,1.23-3.22.56-6.41,1.03-9.7,1.35-12.64,1.21-25.58,2.18-38.08,1.6-25.44-.56-50.23-5.56-73.84-15.17-23.62-9.37-45.97-23.65-66.78-41.74-20.78-18.13-40.03-40.44-57.35-65.69-4.35-6.09-8.6-12.66-12.67-19.32-4.18-6.45-8.22-13.25-12.11-20.14-3.84-7.05-7.8-13.6-11.53-20.78-1.82-3.41-3.66-7-5.47-10.72-1.8-3.26-3.61-6.68-5.42-10.16-1.81-3.54-3.57-7.11-5.24-10.67-1.82-3.22-3.68-6.61-5.43-10.07-.91-1.69-1.8-3.36-2.64-5.19-.86-1.66-1.7-3.21-2.58-4.98-1.76-3.48-3.47-6.95-5.19-10.58-1.67-3.65-3.16-7.51-4.74-11.41-1.48-3.75-3.05-7.49-4.4-11.54-2.74-8.14-5.48-16.08-7.86-24.49-4.66-16.7-9.04-33.39-12.26-50.9-1.54-8.89-3.05-17.4-4.36-26.03-1.26-8.7-2.46-17.25-3.53-25.79-4.28-33.75-6.55-65.53-7.89-92.25-.19-3.31-.41-6.94-.5-10.38.19-3.32.56-7.49,1.61-9.91,1.02-2.57,2.16-2.54,3-1.01.06.64.12,1.38.2,2.25,1.86,25.73,3.69,71.68,8.85,103.71,1.31,7.77,2.71,15.87,4.19,24.09,1.6,7.95,3.22,15.94,4.97,24.33,1.77,8.19,3.71,16.33,5.59,24.98,1.91,8.42,4.18,16.31,6.41,24.57,2.32,8.12,4.93,15.85,7.55,23.74,1.4,3.68,2.88,7.44,4.36,11.18,1.42,3.62,2.84,7.46,4.46,10.9,1.63,3.33,3.28,6.67,4.92,9.99,1.78,3.67,3.52,7,5.23,10.38,1.82,3.49,3.55,6.81,5.36,9.97,1.8,3.74,3.56,7.26,5.34,10.96,1.82,3.36,3.68,6.89,5.59,10.29,1.74,3.51,3.55,7.12,5.46,10.73,3.67,7.09,7.56,13.56,11.43,20.6,3.89,6.76,7.86,13.51,12.01,20.03,4.03,6.61,8.28,13.13,12.58,19.16,17.14,25.03,36.14,46.94,56.69,65,20.6,17.9,42.72,32.04,66.14,41.26,23.25,9.49,47.79,14.46,72.92,14.96,12.5.65,25.27-.33,37.91-1.61,3.19-.3,6.47-.87,9.6-1.2,3.2-.64,6.44-.93,9.52-1.41,6.36-1.09,12.78-2.4,19.19-4.04,12.56-3.42,25.45-9.76,38.24-17.94,12.83-8.3,25.71-18.55,38.15-29.98,24.93-23.14,48.69-51.09,70.27-79.75,5.36-7.2,10.62-14.47,15.77-21.77,2.6-3.7,5.08-7.27,7.6-10.96,2.5-3.51,4.9-6.91,7.43-10.58,9.76-13.87,19.19-27.89,27.87-41.42,17.37-26.87,32.5-51.67,45.16-72.32,12.52-20.51,22.67-36.44,29.71-46.36,1.76-2.62,3.38-4.53,4.73-6.41.61-.72,1.2-1.49,1.84-2.39.5-.46.98-1.12,1.5-1.72,1.78-1.91,2.78-3.27,2.78-3.27,0,0-1,1.36-2.84,3.82-.47.6-.98,1.21-1.46,1.8-.61.89-1.23,1.74-1.94,2.79-1.31,1.98-2.77,3.83-4.5,6.59-6.88,10.67-16.69,27.75-28.97,49.32-12.29,21.67-27.04,48.09-44.21,76.5-8.68,14.59-17.86,29.36-27.6,44.51-4.91,7.57-9.99,15-15.19,22.1-5.25,7.45-10.66,14.85-16.14,22.21-21.92,29.14-46.16,57.69-71.79,81.41-12.75,11.81-25.91,22.31-39.22,30.88Z"/>
              <path class="cls-1" d="M1877.09,241.88c2.63-2.22,5.27-4.48,7.91-6.79,2.66-2.61,5.32-5.27,7.97-7.97,5.3-5.29,10.61-10.76,15.91-16.4,5.4-5.79,10.66-11.37,15.94-17.61,5.26-6.23,10.51-12.62,15.76-19.17,10.61-13.35,21.19-27.25,31.6-42.03,5.19-7.42,10.37-15,15.53-22.73,5.11-7.94,10.2-16.03,15.27-24.27,5.11-8.1,10.16-16.64,15.25-25.07,5.08-8.32,10.14-16.79,15.19-25.41,5.08-8.72,10.13-17.59,15.16-26.61,5.04-8.96,9.94-18.47,15.03-27,5.15-8.71,10.18-18.34,15.35-26.63,5.18-8.38,10.5-17.57,15.91-25.24,0,.02,0,.04.01.06h0c1.43-1.83,2.87-3.68,4.31-5.54.02.77.03,1.53.05,2.3-1.44,1.65-2.87,3.29-4.3,4.91,0,.03.01.05.02.08-2.38,3.12-4.67,6.09-7.15,9.68-2.34,3.6-4.68,7.16-7.02,10.68-4.59,6.54-9.24,14.49-13.91,21.88-2.31,3.74-4.63,7.44-6.94,11.11-2.18,3.47-4.5,7.56-6.78,11.27-4.52,7.68-9.05,15.23-13.59,22.65-9.12,14.8-18.28,29.07-27.48,42.81-9.11,14.11-18.27,27.71-27.47,40.8-9.25,13.13-18.33,26.6-27.64,39.02-9.27,12.28-18.56,24.05-27.88,35.31-9.37,11.58-18.75,21.34-28.12,31.05-4.66,4.85-9.33,9.57-13.99,14.16-4.86,4.69-9.48,8.32-14.07,12.23-9.45,7.71-18.63,14.96-27.97,21.21-9.3,5.65-18.55,11.08-27.46,14.12-18.04,7.32-34.68,8.1-51.68,10.81-17,2.53-33.13,1.52-49.36,1.03-16.22-1.06-31.94-4.34-47.11-9.79-3.76-1.37-7.49-2.88-11.18-4.52-3.79-1.35-7.54-2.83-11.26-4.45-7.41-3.25-14.69-7.04-21.82-11.37-7.16-4.35-14.18-9.24-21.04-14.65-6.82-5.4-13.36-11.42-20.17-17.2-13.35-11.94-26.08-26-38.12-42.19-12.02-16.51-23.47-33.78-34.54-53.3-5.59-9.45-10.98-19.53-16.23-29.75-2.53-5.29-5.41-10.23-7.95-15.51-1.33-2.64-2.66-5.32-3.97-8.03-1.15-2.37-2.72-4.98-3.97-7.58-5.38-10.5-10.88-20.53-15.68-32.67-5.03-12.23-9.24-25.41-13.36-39.73-3.99-14-7.57-28.88-10.82-44.46-3.35-15.4-6.55-31.56-9.21-47.97-5.65-34.2-7.18-73.32-9.77-111.2.16.56.32,1.11.48,1.66-.16.2-.23-.19-.34-.05-.17-.08-.34-.37-.34-.37,0,0,.02.23.04-.05.05-.07-.08.11-.23.3-.13.26-.27.52-.4.78-.05.06-.1.12-.14.19h0s-.03.04-.05.06h0c-.21.53.3-.66.22-.55,0,.08.01.16.02.23-.02.02-.03.04-.05.06-.05.62-.22.55-.25,1.19-.06.53-.25.78-.29,1.63-.15,1.18-.26,2.58-.37,3.84,0-.37,0-.74,0-1.11,1.33,27.99,3.54,55.12,6.06,81.38,2.46,26.31,6.1,50.82,10.29,73.89,2.41,11.23,4.93,22.18,7.59,32.85,1.31,5.32,2.65,10.57,4.02,15.76,1.48,4.99,3,9.92,4.54,14.76,6.07,19.44,13.39,35.99,21.2,50.93,3.86,7.48,7.93,14.9,11.66,22.74,3.86,7.49,7.81,15.06,11.66,22.42,7.77,14.9,15.75,28.84,24.04,42.05,4.1,6.68,8.3,13.07,12.59,19.19,4.19,6.37,8.47,12.47,12.85,18.29,8.71,11.67,17.78,22.24,27.18,31.71,4.72,4.74,9.53,9.19,14.41,13.37,4.93,4.23,9.59,8.63,14.65,12.53,9.86,7.92,20.04,14.75,30.52,20.46,10.4,6.03,21.41,9.89,32.29,14.5,10.89,4.25,22.07,7.39,33.53,9.39,11.41,2.11,23.18,2.53,35.02,2.87,11.82.53,23.9-.1,36.24-1.92,12.27-1.56,24.56-2.91,37.31-6.3,6.41-2.11,12.87-4.53,19.39-7.26,6.58-3.44,13.2-7.17,19.86-11.21,10.5-7.46,21.05-15.65,31.65-24.55ZM1825.45,277.92c-6.48,2.74-12.91,5.17-19.29,7.3-12.78,3.58-25.18,5.08-37.38,6.76-12.36,1.95-24.47,2.71-36.32,2.31-11.89-.13-23.78-.5-35.25-2.43-11.5-1.86-22.74-4.86-33.68-8.98-10.91-4.48-21.89-8.16-32.35-14.06-10.57-5.61-20.85-12.34-30.81-20.17-4.96-3.87-9.78-8.2-14.62-12.38-4.92-4.12-9.76-8.52-14.52-13.2-9.48-9.33-18.64-19.76-27.44-31.3-4.4-5.81-8.71-11.91-12.92-18.27-4.31-6.11-8.54-12.51-12.66-19.18-8.3-13.01-16.46-26.94-24.31-41.52-3.82-7.47-7.71-14.66-11.58-22.23-3.86-7.8-7.78-14.86-11.74-22.37-7.92-14.96-15.48-31.62-21.6-51.46-1.58-4.81-3.13-9.7-4.65-14.66-1.41-5.23-2.79-10.52-4.13-15.89-2.7-10.66-5.28-21.6-7.74-32.82-4.29-23.59-8.07-48.31-10.56-74.73-2.67-26.17-4.88-52.97-6.28-81.51.02-.2.03-.4.05-.6-.02-.24-.04-.47-.06-.71.17-1.67.31-3.48.61-5.42.08-.87.32-2.23.5-3.23.17-1.01.54-2.22.87-3.17.1-.3.2-.6.29-.91.01-.02.02-.03.04-.05.11-.21.21-.43.32-.64.03-.04.06-.08.1-.12.13-.27.26-.54.4-.81.14-.19.25-.65.61-.79.28-.35.61-.79.92-.89.6-.31.9-.18,1.39-.07.39.28.68.62,1.06,1.24.11.11.22.21.34.31.04.46.08.92.12,1.37,2.67,38.32,4.33,77.15,9.86,109.73,2.74,16.85,5.9,32.28,9.28,47.49,3.32,15.6,6.87,30.11,10.84,44.31,4.01,13.59,8.36,26.89,13.12,38.25,4.79,11.95,10.34,21.99,15.65,32.28,1.39,2.64,2.75,4.91,4.13,7.88,1.31,2.67,2.63,5.3,3.96,7.89,2.59,5.16,5.3,9.78,7.98,15.2,5.37,10.33,10.68,20.13,16.31,29.61,10.95,18.8,22.7,36.52,34.37,52.93,11.91,16.26,24.51,30.42,37.73,42.46,6.56,5.73,13.28,11.97,20.03,17.43,6.74,5.45,13.64,10.39,20.68,14.79,7.06,4.38,14.26,8.24,21.6,11.57,3.72,1.68,7.48,3.22,11.27,4.62,3.69,1.67,7.42,3.21,11.18,4.62,14.96,5.55,30.48,8.98,46.5,10.22,16.25.68,32.43,1.86,49.24-.36,16.75-2.41,33.74-3.33,51.37-10.32,8.86-2.93,17.96-8.21,27.08-13.61,8.96-5.99,18.32-13.28,27.72-20.86,4.46-3.77,9.31-7.44,13.77-11.75,4.69-4.54,9.38-9.22,14.07-14.04,9.22-9.53,18.67-19.27,27.9-30.71,9.28-11.14,18.54-22.79,27.77-34.96,9.29-12.19,18.35-25.4,27.55-38.51,9.17-12.98,18.31-26.47,27.41-40.47,9.21-13.68,18.4-27.88,27.54-42.63,4.54-7.34,9.08-14.81,13.6-22.4,2.38-3.82,4.42-7.56,6.94-11.58,2.29-3.58,4.57-7.19,6.85-10.84,4.65-7.37,9.3-15.29,14.13-22.05,2.36-3.56,4.73-7.16,7.09-10.81,2.28-3.12,4.84-6.55,7.17-9.61.03-.06.07-.12.1-.18h0c1.41-1.54,2.81-3.1,4.22-4.68.01.74.02,1.48.03,2.22-1.43,1.89-2.87,3.76-4.3,5.62.04-.07.08-.14.12-.2-2.64,3.93-5.41,7.71-7.92,11.95-2.6,4.32-5.21,8.6-7.82,12.83-5.29,8.43-10.23,17.96-15.32,26.34-5.15,8.42-10.03,18.02-15.07,26.88-5,8.92-10.03,17.68-15.07,26.3-5.1,8.68-10.23,17.21-15.37,25.58-4.95,8.11-10.03,16.63-15.15,24.85-5.12,8.25-10.26,16.35-15.42,24.31-5.17,7.74-10.36,15.33-15.56,22.75-10.54,14.65-21.01,28.51-31.64,41.59-5.25,6.55-10.51,12.94-15.77,19.16-5.4,6.39-10.67,11.74-15.95,17.48-5.35,5.65-10.69,11.12-16.04,16.42-2.66,2.63-5.32,5.22-7.97,7.77-2.64,2.3-5.28,4.56-7.91,6.77-10.6,8.81-21.15,16.9-31.64,24.27-6.7,4.13-13.36,7.96-19.99,11.49Z"/>
            </g>
            <g>
              <path class="cls-8" d="M1806.54,270.96c-19.31,12.5-40.46,23.69-62.27,32.19-10.8,4.17-21.84,7.93-32.9,11.25-5.55,1.63-10.89,3.08-16.4,4.51-5.52,1.51-11.01,2.9-16.72,4.17-21.98,4.88-44.55,8.46-66.56,9.87-44.63,3.2-88.36-1.45-128-13.76-39.66-12.12-75.06-32-104.17-57.36-29.12-25.32-51.91-56.31-67.7-89.66-4.01-8.21-7.58-16.78-10.68-25.33-3.26-8.54-6.03-17.27-8.4-25.99-2.29-8.76-4.54-17.44-6.2-26.33-.83-4.28-1.58-8.71-2.21-13.22-.74-4.2-1.38-8.51-1.97-12.9-.56-4.41-1.02-8.8-1.35-13.08-.55-4.27-1.02-8.68-1.33-13.03-.19-2.18-.36-4.35-.44-6.55-.14-2.11-.29-4.14-.38-6.35-.21-4.4-.33-8.73-.36-13.17.01-4.39.27-8.68.52-13.11.27-4.21.53-8.54,1.08-12.74,1.08-8.5,2.28-16.88,4-25.02,3.45-16.05,7.71-31.59,13.23-45.72,2.84-7.05,5.66-13.78,8.69-20.23,3.07-6.42,6.2-12.62,9.44-18.56,12.79-23.58,26.47-42.2,38.32-56.45,1.46-1.8,3.08-3.78,4.63-5.49,1.55-1.27,3.52-2.68,4.8-2.36,1.34.2,1.52,1.73.98,3.54-.28.37-.6.79-.99,1.3-11.37,14.15-31.34,38.94-42.87,62.85-2.79,5.83-5.61,12.04-8.36,18.46-2.59,6.45-5.1,12.99-7.6,19.99-2.41,6.92-4.62,14.07-6.92,21.49-2.2,7.32-3.89,14.88-5.59,22.62-1.6,7.79-2.75,15.76-3.78,23.85-.37,4.01-.67,8.17-.93,12.31-.25,3.99-.53,8.12-.49,12.27.07,4.09.2,8.2.38,12.29.17,4.46.48,8.67.79,12.86.37,4.39.76,8.55,1.32,12.7.39,4.48.86,8.78,1.36,13.2.62,4.26,1.29,8.64,2.09,13,.63,4.22,1.35,8.57,2.21,13.01,1.64,8.64,3.84,17.06,6.16,25.73,2.39,8.5,5.11,17.01,8.3,25.43,3.05,8.35,6.61,16.76,10.56,24.76,15.54,32.52,37.86,62.57,66.35,87.31,28.51,24.7,63.14,44.07,101.99,55.85,38.58,11.94,81.31,16.48,124.81,13.35,21.75-1.34,43.74-4.84,65.42-9.67,5.47-1.21,11.02-2.65,16.39-4.01,5.39-1.52,10.95-2.98,16.17-4.52,10.75-3.24,21.5-6.89,32.07-10.96,20.65-8.05,40.59-18.52,59.11-30.37,18.55-11.92,35.89-25.36,51.35-39.32,30.93-28.06,55.13-58.46,73.25-86.99,4.48-7.11,8.62-14.16,12.45-21.1,1.93-3.51,3.72-6.87,5.48-10.29,1.81-3.37,3.5-6.6,5.23-10.04,6.75-13.18,12.45-26.04,17.01-37.93,9.24-23.75,14.99-44.37,19.15-61.36,4.06-16.82,6.88-30.12,9.24-39.21.52-2.28,1.24-4.35,1.68-6.09.26-.77.48-1.53.69-2.36.28-.63.44-1.25.67-1.9.86-2.25,1.17-3.53,1.17-3.53,0,0-.32,1.28-.95,3.63-.18.6-.4,1.25-.58,1.86-.18.79-.38,1.58-.58,2.5-.35,1.7-.93,3.56-1.34,5.82-1.82,8.97-3.68,21.98-6.9,38.66-3.2,16.7-7.61,37.13-15.73,61.02-4,12.1-8.97,24.9-15.03,38.43-3.08,6.8-6.61,13.79-10.61,20.84-3.89,7.16-8.19,14.48-12.77,21.85-18.41,29.36-43.16,60.87-75.24,90.17-15.92,14.56-33.8,28.56-53.27,41.12Z"/>
              <path class="cls-1" d="M1849.99,238.21c3.44-2.9,6.84-5.83,10.2-8.81,3.25-3.08,6.46-6.19,9.61-9.34,6.34-6.26,12.48-12.65,18.41-19.15,6.03-6.64,11.79-13.16,17.15-19.91,5.33-6.73,10.45-13.54,15.34-20.42,9.86-13.94,18.82-28.12,26.57-42.33,3.83-7.09,7.43-14.2,10.79-21.31,3.18-7.09,6.12-14.18,8.83-21.24,2.82-7.09,5.21-14.15,7.56-21.22,2.4-7.04,4.56-14.06,6.48-21.03,1.91-7.02,3.58-14,5.01-20.92,1.47-6.92,2.36-13.69,3.84-20.54,1.45-6.93,2.16-13.76,3.56-20.58,1.36-6.84,2.33-13.85,3.99-20.8.01,0,.03,0,.04-.01h0c.55-1.83,1.07-3.66,1.59-5.5.41.03.82.05,1.22.08-.62,1.82-1.25,3.64-1.9,5.46.02,0,.04-.01.06-.02-.86,3.04-1.74,5.98-2.53,9.2-.64,3.05-1.33,6.11-2.06,9.17-1.62,5.97-2.72,12.17-4.23,18.38-.71,3.08-1.47,6.17-2.27,9.27-.74,2.91-1.38,6.07-2.17,9.14-1.42,6.13-3.03,12.3-4.83,18.49-3.66,12.42-8.09,24.94-13.26,37.45-4.89,12.47-10.53,24.98-16.91,37.43-6.44,12.5-12.92,24.89-20.67,37.27-7.75,12.29-16.22,24.43-25.38,36.32-9.09,12.02-19.46,23.46-30.21,34.61-5.34,5.56-10.84,11.02-16.48,16.37-5.91,5.55-11.99,10.51-17.99,15.45-12.45,10.05-24.98,19.41-38.46,28.15-13.64,8.49-27.55,16.45-41.91,22.8-28.69,13.3-57.74,21.2-86.62,27.84-28.99,6.58-57.44,9.08-85.39,9.67-28.08.3-55.34-2.8-81-9.13-6.37-1.58-12.64-3.36-18.8-5.34-6.28-1.83-12.46-3.86-18.52-6.09-12.09-4.45-23.72-9.68-34.83-15.63-11.16-5.98-21.78-12.7-31.8-20.09-9.96-7.37-19.14-15.35-28.27-23.78-17.9-16.9-33.22-36.33-45.56-57.68-12.27-21.54-21.93-44.21-28.83-68.66-3.56-12.09-6.3-24.56-8.39-37.07-.92-6.26-2.1-12.75-2.79-19.09-.4-3.24-.74-6.5-1.04-9.78-.27-2.87-.76-6.4-.98-9.54-1.14-13.09-2-26.2-1.25-39.7.64-13.86,2.6-27.21,5.45-41.02,2.82-13.44,6.61-26.75,11.21-39.78,4.49-13.08,9.75-26.21,15.64-38.47,12.3-25.72,29.2-47.13,45.95-67.91-.22.47-.45.94-.67,1.41-.12-.11.04-.39-.04-.47,0-.26.11-.63.11-.63s-.1.14.03.03c.04.04-.06-.06-.17-.17-.14-.06-.28-.12-.42-.17-.04-.04-.07-.07-.11-.11h0s-.02-.02-.04-.04h0c-.28-.03.35.1.29.04-.04.05-.07.09-.1.14-.01-.01-.02-.02-.04-.04-.29.22-.29-.04-.59.2-.25.17-.4.02-.79.35-.56.34-1.22.83-1.81,1.27.17-.17.34-.35.5-.52-12.52,14.68-24.06,30.9-34.54,47.76-10.53,16.79-19.35,34.93-26.58,53.47-3.37,9.53-6.37,19.18-8.98,28.9-1.31,4.83-2.52,9.68-3.64,14.54-.99,4.91-1.87,9.83-2.65,14.76-3.21,19.6-3.71,39.28-2.3,58.35.66,9.49,1.76,19.13,2.76,28.55,1.19,9.37,2.69,18.82,4.42,27.94,3.48,18.44,8.42,36.2,14.85,53.34,3.16,8.57,6.72,16.94,10.69,25.08,3.81,8.2,8.03,16.19,12.63,23.92,9.15,15.44,19.85,29.88,31.97,43.07,6.09,6.61,12.52,12.91,19.3,18.87,6.83,6.01,13.51,11.75,20.94,17.2,14.51,10.81,30.3,20.21,47.14,28.04,16.74,7.99,34.92,13.89,53.5,19.04,18.55,4.96,37.97,8.25,57.98,9.77,19.96,1.59,40.53,1.13,61.34-.54,20.83-1.58,42.02-4.95,63.25-10.1,21.19-5.01,42.53-11.11,63.79-19.42,10.53-4.33,20.98-9.09,31.32-14.25,10.18-5.46,20.2-11.31,30.04-17.51,15.07-10.15,29.59-21.11,43.44-32.75ZM1776.38,288.66c-10.28,5.14-20.67,9.88-31.14,14.2-21.23,8.4-42.74,14.61-63.78,19.66-21.25,5.22-42.47,8.67-63.34,10.33-20.86,1.8-41.66,2.28-61.69.78-20.09-1.46-39.6-4.69-58.25-9.6-18.63-5.1-36.78-10.9-53.63-18.86-17.01-7.82-32.97-17.24-47.64-28.09-7.31-5.38-14.22-11.19-20.94-17.14-6.83-5.96-13.34-12.27-19.48-18.9-12.26-13.21-23.1-27.68-32.39-43.17-4.64-7.78-8.89-15.81-12.73-24.06-3.99-8.19-7.59-16.62-10.77-25.25-6.47-17.08-11.6-35.1-15.21-53.52-1.67-9.19-3.22-18.37-4.39-27.84-1.1-9.6-2.18-18.88-2.91-28.55-1.48-19.29-1.08-39.48,2.28-59.45.76-4.97,1.62-9.94,2.59-14.91,1.12-4.96,2.34-9.91,3.66-14.84,2.61-9.82,5.61-19.57,8.98-29.21,7.45-19.03,16.4-37.53,27.04-54.44,10.48-17.03,21.95-33.13,34.77-48.16.09-.07.19-.14.28-.2.1-.14.21-.28.31-.41.79-.54,1.65-1.17,2.58-1.65.41-.28,1.08-.58,1.56-.79.49-.23,1.1-.28,1.59-.27.15,0,.31-.01.46-.02,0,0,.02.02.03.03.12.04.23.09.35.13.02.02.05.05.07.07.15.05.29.11.43.16.11.11.34.04.46.46.21.21.46.46.56.82.24.65.24,1.12.27,1.82-.06.64-.16,1.18-.38,1.96-.03.2-.05.39-.08.59-.2.26-.4.53-.6.79-16.85,21.07-33.43,42.56-44.99,67.17-5.99,12.56-10.92,25.19-15.27,38.14-4.52,13.1-8.14,26.07-10.99,39.51-2.61,13.15-4.49,26.68-4.99,39.57-.68,13.29.23,26.37,1.38,39.15.32,3.32.74,6.35,1.03,9.85.31,3.22.67,6.42,1.08,9.61.77,6.27,1.89,12.31,2.91,18.78,2.18,12.63,4.92,24.73,8.5,36.78,6.9,23.68,16.78,46.72,28.63,67.67,12.13,21.09,27.2,40.31,44.84,57.04,8.75,8.15,18.12,16.34,27.94,23.63,9.79,7.28,20.18,13.91,31.1,19.83,10.94,5.91,22.4,11.11,34.31,15.54,6.04,2.25,12.19,4.29,18.45,6.15,6.13,1.98,12.37,3.76,18.71,5.35,25.2,6.29,51.99,9.43,79.6,9.25,27.87-.47,56.3-2.91,84.91-9.25,28.4-6.37,57.87-14.45,85.84-27.34,14.26-6.24,27.91-14.01,41.29-22.25,12.87-8.33,25.67-17.78,38.06-27.71,5.8-4.76,12.22-9.9,17.64-14.98,5.69-5.34,11.23-10.78,16.61-16.33,10.55-10.91,21.02-22.36,29.95-34.16,9.15-11.78,17.61-23.81,25.36-36,7.83-12.26,14.4-24.54,20.79-36.96,6.41-12.37,12.09-24.8,17.02-37.22,5.24-12.5,9.74-25.01,13.47-37.42,1.85-6.17,3.51-12.33,4.98-18.44.86-3.2,1.35-5.99,2.21-9.35.82-3.05,1.59-6.09,2.31-9.13,1.51-6.19,2.61-12.36,4.39-18.64.74-3.09,1.43-6.17,2.07-9.25.81-2.94,1.75-6.23,2.58-9.2,0-.05,0-.09.01-.13h0c.66-1.78,1.31-3.56,1.94-5.34.39.03.78.06,1.17.09-.49,1.83-1.01,3.67-1.54,5.5,0-.05.01-.1.01-.15-.72,3.41-1.69,6.99-2.18,10.28-.56,3.42-1.17,6.86-1.85,10.31-1.46,6.98-2.11,13.69-3.65,20.53-1.59,6.91-2.41,13.67-3.93,20.6-1.44,6.88-3.13,13.82-5.05,20.81-1.96,7.06-4.16,14.16-6.61,21.29-2.33,6.87-4.75,13.97-7.53,21.09-2.76,7.13-5.76,14.28-9,21.44-3.37,7.14-6.97,14.27-10.82,21.38-7.99,14.34-16.82,28.4-26.83,42.32-4.9,6.89-10.02,13.71-15.36,20.45-5.48,6.92-11.36,13.39-17.22,19.91-6,6.55-12.21,12.99-18.61,19.29-3.19,3.13-6.42,6.23-9.7,9.29-3.36,2.98-6.77,5.91-10.21,8.81-13.89,11.62-28.45,22.55-43.55,32.66-9.87,6.27-19.94,12.17-30.17,17.7Z"/>
            </g>
          </g>
          <g>
            <path class="cls-6" d="M2004.93,25.64s-50.39,21.68-77.68,19.07c-27.3-2.61-83.06,87.95-78.01,159.63,0,0-40.01,105.31-42.31,130.98-2.3,25.67,21.26,70.52,21.26,70.52,0,0,22.56-70.7,48.85-98.59,26.3-27.89,24.1-85.03,30.49-104.72,6.38-19.7,40.55-40.22,47.88-52.31,7.33-12.09-1.38-91.2,49.53-124.57Z"/>
            <path class="cls-9" d="M1848.95,196.89c-.94-70.34,51.95-154.7,78.3-152.18,27.3,2.61,77.68-19.07,77.68-19.07-5.66,3.71-15.44,6.41-19.73,11.1-72.17,56.83-107.27,93.49-136.26,160.16Z"/>
            <path class="cls-5" d="M1849.24,204.34c38.71-87.64,121.18-208.46,230.82-191.97,7.14,1.15,14.17,2.86,21.06,4.98l-1.63,5.29c-13.32-3.92-27.12-6.11-41.01-6.05-96.58.94-171.51,108.75-209.24,187.75h0Z"/>
            <path class="cls-5" d="M1920.89,93.07c-6.06,15.75-11.24,31.94-15.52,48.28-4.18,16.4-7.52,33.11-8.09,50.08.14-25.54,5.94-50.69,12.78-75.18,2.35-8.18,4.85-16.29,7.69-24.37l3.14,1.19h0Z"/>
            <path class="cls-5" d="M1890.46,132.7c-13.51,48.19-22.83,98.37-20.63,148.61-2.46-37.72,2.27-75.54,9.62-112.51,2.51-12.34,5.33-24.6,8.69-36.78l2.32.69h0Z"/>
            <path class="cls-5" d="M1862.6,177.06c-4.32,13.76-6.12,20.22-9.73,34.15-3.58,13.92-6.89,27.92-9.69,42.02-2.79,14.1-5.32,28.26-6.89,42.56-1.57,14.27-2.59,28.67-1.69,43.01-.61-14.36.7-28.7,2.56-42.9,1.85-14.22,4.67-28.3,7.74-42.3,3.07-14,6.66-27.89,10.51-41.7,3.88-13.79,10.21-34.26,14.77-47.81l-7.58,12.98Z"/>
          </g>
          <g>
            <path class="cls-2" d="M119,236.55c2.57,1.9,6.16-.2,5.63-3.35-1.65-9.89-3.18-27.99,2.5-47.52,8.51-29.29,23.74-81.67,23.74-81.67l-43.22-8.9s5.42,29.67-2.82,51.71c-7.66,20.49-15.24,67.94,14.17,89.73Z"/>
            <path class="cls-2" d="M305.06,257.29c9.97-16.13,36.05-62.41,33.62-101.74l-33.79-9.82-3.39,110.47c-.06,1.98,2.53,2.78,3.57,1.1Z"/>
            <path class="cls-3" d="M324.86,171.89c-2.1,13.1-4.64,34.55-2.65,53.21,8.32-18.29,16.06-40.77,16.59-62h0c-6.35-1.85-12.89,2.26-13.94,8.79Z"/>
            <path class="cls-2" d="M435.55,183.71s49.42,33.33,15.46,65.64c-2.03,1.93-5.4.75-5.64-2.04-1.18-13.93-6.53-46.89-30.84-67.17l21.02,3.58Z"/>
            <path class="cls-2" d="M416.8,237.69c5.43-11,13.58-34,1.68-56.89l-20.1-7.9,13.14,64.07c.54,2.63,4.09,3.12,5.28.72Z"/>
            <path class="cls-2" d="M389.97,257.45c-1.01-23.3-2.39-80.87,8.41-84.54l-24.78-7.2s-16.98,68.5,8.47,95.09c2.92,3.05,8.09.87,7.9-3.35Z"/>
            <path class="cls-2" d="M354.68,251.78c.79-17.37,4.51-75.75,18.92-86.08l-34.92-10.15s-18.22,81.88,10.86,98.98c2.21,1.3,5.02-.19,5.14-2.75Z"/>
            <path class="cls-2" d="M266.55,253.54c.86,1.98,3.81,1.41,3.87-.75.26-10.67,2.73-27.45,14.5-38.35,18.39-17.03,26.04-55.96,19.98-68.71l-31.54-9.17s-5.36,43.64-17.03,58.58c-8.6,11,3.34,42.55,10.23,58.41Z"/>
            <path class="cls-3" d="M288.76,164.45c-4.58,7.18-7.65,14.67-8,23.25-.46,11.04,1.21,22.18-3.08,32.72-1.73,4.24-3.33,8.13-4.06,12.45,2.15-6.61,5.64-13.2,11.28-18.42,16.58-15.36,24.39-48.44,21.33-64.17-7.71-.08-13.78,8.38-17.48,14.18Z"/>
            <path class="cls-2" d="M224.16,248.76c.64,4.48,6.51,5.73,8.94,1.91,4.43-6.95,10-16.46,13.57-25.35,6.71-16.7-2.65-39.85,8.27-45.85,10.92-6.01,13-44.47,13-44.47l-35.15-10.22s-1.61,34.96-8.43,45.81c-6.82,10.85.33,32.47-1.67,47.77-1.14,8.67.14,21.19,1.47,30.41Z"/>
            <path class="cls-2" d="M226.9,126.11s-1.6,49.62-13.6,65.68c-8.8,11.78-15.45,40.28-18.36,54.64-.41,2.02-3.29,2.05-3.74.03-3.01-13.54-7.72-40.61-3.16-62.32,6.34-30.22,5.07-67.86,5.07-67.86l33.79,9.82Z"/>
            <path class="cls-2" d="M155.64,243.8c1.28,1.88,4.22.84,3.99-1.43-1.42-14.21-2.93-41.82,5.41-50.55,11.42-11.95,6.05-26.95,8.65-35.97s19.42-39.56,19.42-39.56l-42.24-12.28s-12.55,49.49-8.32,58.05c4.23,8.56-9.5,32.67-6.58,45.73,2.02,9.04,13.06,26.25,19.68,36Z"/>
            <path class="cls-3" d="M145.77,186.55c3.8-13.62,10.59-28.04,11.05-42.31.38-11.72-4.81-22.93-7.19-34.24-.05-.23-.05-.43-.07-.65-3.09,13.02-10.4,45.88-7.02,52.71,4.23,8.56-9.5,32.67-6.58,45.73.77,3.45,2.86,8.1,5.52,13.06-1.06-11.66,1.1-22.88,4.29-34.3Z"/>
            <path class="cls-2" d="M64.45,219.68c.68,2.51,4.33,2.22,4.61-.36,2.07-18.77,7.01-52.78,16.3-62.27,13.03-13.31,22.28-61.94,22.28-61.94l-44.84-7.54s-14.53,41.59-12.79,65c1.23,16.52,9.61,49.26,14.43,67.1Z"/>
            <path class="cls-2" d="M9.5,225.04c1.5,1.83,4.44,1.04,4.79-1.31,1.21-8.23,4.27-24.69,11.52-46.74,10.62-32.34,28.12-97.5,28.12-97.5l-44.29-12.88S-3.16,100.16,1.31,124.67c4.48,24.51.08,35.45-5.91,58.14-4.4,16.69,7.5,34.16,14.1,42.23Z"/>
            <path class="cls-3" d="M6.03,156.56c5.3-16.15,13.54-30.99,19.31-46.91,3.93-10.85,9.2-26.13,3.86-37.33,0,0,0-.01,0-.02l-19.56-5.69S-3.16,100.16,1.31,124.67c4.48,24.51.08,35.45-5.91,58.14-2.77,10.51.92,21.32,5.68,29.9-5.27-17.52-.8-38.65,4.95-56.16Z"/>
            <path class="cls-2" d="M-39.65,56.28S-17.14,20.06-15.24-7.49c1.9-27.55,7.53-42.4,15.78-58.33,4.6-8.88,8.21-18.8,10.51-25.84,1.45-4.46-2.65-8.73-7.16-7.46-9.65,2.71-23.54,9.14-28.72,24.09-8.26,23.86-5.86,28.23-14.86,40.27-9,12.04-11.02,12.68-18.63,22.07-7.62,9.39-17.96,54.32-17.96,54.32l36.63,14.64Z"/>
            <path class="cls-2" d="M52.5-71.93c3.28-.93,5.98,2.71,4.09,5.53-5.03,7.51-11.22,19.46-11.04,32.6.3,22.08-1.11,28.39-13.3,51.72-12.19,23.33-23.31,50.61-23.31,50.61l-37.71-11.93S-17.61,8.31-1.87-2.38c15.74-10.69,14.63-48.89,26.35-57.7,6.97-5.23,19.22-9.36,28.02-11.85Z"/>
            <path class="cls-2" d="M109.13-49.21c1.57-3.12-.6-6.84-4.08-6.93-8.42-.23-22.31,1.74-31.19,15.31-5.74,8.78-14.18,49.63-26.08,63.88-11.9,14.25-28.01,47.67-28.01,47.67l43.89,12.76s9.44-18.86,15.61-53.71c4.87-27.49,22.58-64.53,29.85-78.97Z"/>
            <path class="cls-3" d="M37.56,75.88c5.54-5.94,10.68-12.12,12.9-20.13,2.49-8.96,3.36-18.69,4.76-27.88.04-.27.1-.54.14-.82.96-7.79,1.43-15.53,2.53-23.24-3.05,7.8-6.41,14.8-10.11,19.23-11.9,14.25-28.01,47.67-28.01,47.67l17.79,5.17Z"/>
            <path class="cls-2" d="M136.02-31.93s-29.12,24.52-36.57,50.15c-7.45,25.63-29.67,65.88-29.67,65.88l45.42,9.06s2.64-24.71,4.28-49.27c1.64-24.57,15.02-43.28,20.34-59.45,5.31-16.17-.42-19.39-3.79-16.37Z"/>
            <path class="cls-2" d="M179.74-21.62c-.35-3.14-3.74-4.95-6.58-3.55-8.85,4.35-31.6,17.04-35.56,34.02-4.93,21.17-7.93,25.18-12.61,43.37-4.68,18.19-11.79,40.55-11.79,40.55l38.61,7.98s9.17-25.24,11.33-55.77c2.15-30.53-3.82-26.77,9.48-47.33,6.25-9.66,7.53-15.64,7.12-19.27Z"/>
            <path class="cls-3" d="M136.49,51.78c3.1-13.49,5.67-26.53,11-39.39,4.7-11.36,10.71-23.14,18.32-33.6-10.45,6.09-25.1,16.74-28.2,30.06-4.93,21.17-7.93,25.18-12.61,43.37-4.08,15.88-10.02,34.94-11.46,39.52,12.58-10.56,19.22-23.69,22.96-39.96Z"/>
            <path class="cls-2" d="M207.14,2.73c.53-2.73-2.46-4.79-4.8-3.3-5.63,3.58-14.11,11.06-20.66,25.89-10.75,24.36-8.66,25.58-13.06,36.52-4.4,10.94-16.81,38.9-16.81,38.9l39.3,9.78s9.23-44.34,9.96-63.68c.53-13.96,4.11-34.03,6.06-44.12Z"/>
            <path class="cls-3" d="M179.48,79.56c5.93-10.6,5.25-24.49,7.25-36.23,1.96-11.52,6.1-22.49,12.37-32.37,2.31-3.64,5.01-6.6,8.07-9.02-.12-2.31-2.73-3.85-4.84-2.51-5.63,3.58-14.11,11.06-20.66,25.89-10.75,24.36-8.66,25.58-13.06,36.52-4.2,10.44-15.67,36.35-16.71,38.67,10.07-5.37,21.76-10.57,27.57-20.96Z"/>
            <path class="cls-2" d="M242,11.57c.34-2.28-2.11-3.88-4.09-2.71-6.49,3.85-17.7,12.75-22.29,30-6.64,24.95-12.95,44.49-12.95,44.49l-11.55,27.18,28.72,8.35s5.32-1.51,7.2-24.78c1.88-23.28,7.28-42.47,9.37-50.42,1.54-5.86,4.26-23.34,5.58-32.12Z"/>
            <path class="cls-2" d="M274.1,37.15c-.13-2.62-3.32-3.79-5.15-1.91-6.43,6.59-17.9,19.32-23.57,31.51-8.14,17.49-10.89,37.46-10.89,37.46l-6.33,17.1,29.41,8.55s-.42-11.15.64-18.14c3.9-25.71,5.26-23.52,11.79-40.55,4.4-11.46,4.5-25.84,4.09-34.01Z"/>
            <path class="cls-2" d="M308,54.18c.96-1.67-.68-3.64-2.48-2.96-8.06,3.07-23.06,10.41-29.73,24.37-9.36,19.58-12.36,42.52-12.36,42.52l-5.86,11.74,30.98,9.01s-3.16-14.36,3.18-42.45c4.45-19.76,12.12-34.95,16.27-42.23Z"/>
            <path class="cls-2" d="M340.95,67.23c.66-1.99-1.5-3.7-3.3-2.62-6.74,4.04-18.48,12.03-24.68,21.78-9.01,14.18-14.2,29.77-14.08,34.69s-3.01,19.89-3.01,19.89l32.1,9.33s-14.77-17.12-4.3-39.12c7.61-15.99,14.22-34.85,17.26-43.96Z"/>
            <path class="cls-2" d="M384.97,74.04s-26.77,3.82-33.48,26.92c-4.06,13.97-9.34,24.45-12.88,30.56-2.89,4.99-5.11,10.32-6.72,15.86l-1.44,4.96,34.92,10.15s.19-19.56,6.01-41.69c5.82-22.13,13.59-46.75,13.59-46.75Z"/>
            <path class="cls-2" d="M416.63,98.38c.84-3.31-3.12-5.67-5.64-3.36-4.33,3.98-9.97,10.54-15.66,21.12-11.95,22.18-15.1,41.42-15.1,41.42l-2.63,7.18,25.84,7.51s2.17-15.86,2.7-26.09c.38-7.39,6.89-33.74,10.48-47.78Z"/>
            <path class="cls-2" d="M432.65,123.71c-3.97,15.12-13.59,44.52-29.19,48.55l26.47,7.7s25.25-29.69,10.36-57.23c-1.77-3.27-6.7-2.61-7.65.98Z"/>
            <path class="cls-2" d="M471.71,151.29c-8.08,8.95-27.13,28.23-41.78,28.66,0,0,16.53,14.58,35.2,2.9,12.78-8,12.97-21.95,11.82-29.94-.37-2.55-3.51-3.53-5.23-1.62Z"/>
            <path class="cls-2" d="M435.55,183.71S178.38,105.78,107.64,95.11C36.9,84.44-163.71,16.23-163.71,16.23"/>
          </g>
          <g>
            <path class="cls-7" d="M19.03,269.67s64.76,214.06,126.58,265.2c0,0-61.35-207.53-126.58-265.2Z"/>
            <path class="cls-7" d="M242.02,466.7s-60.33,10.58-141.66-93.22c-81.33-103.8-83.8-112.61-83.8-112.61,0,0,117.42,85.77,139.85,120.63,22.43,34.86,66.59,79.45,85.61,85.2Z"/>
            <path class="cls-7" d="M275.11,421.02s-61.64-79.25-119.26-101.08C98.22,298.11,15.01,238.36-.37,217.35c0,0,12.72,51.03,131.89,120.49,119.17,69.46,143.6,83.18,143.6,83.18Z"/>
            <path class="cls-7" d="M292.35,363.96s-81.04-75.9-170.2-107.37c-54.8-19.35-139.07-81.29-139.07-81.29,0,0,44.83,75.24,138.33,109.57,93.5,34.33,135.53,53.95,170.93,79.09Z"/>
            <path class="cls-7" d="M12.56,562.68s4.53-153.2-.24-204.08C7.54,307.71-1.68,212.68-1.68,212.68c0,0-47.55,231.22,14.24,350Z"/>
            <path class="cls-7" d="M259.65,279.19S89.36,207.23-15.37,166.53c0,0,78.32-26.58,275.02,112.66Z"/>
            <path class="cls-7" d="M213.2,215.24s-76.12-39.68-157.24-60.36c-27.73-7.07-54.43-17.5-81.07-15.81l-.23-5.06s132.38-24.57,238.54,81.24Z"/>
            <path class="cls-7" d="M155.85,319.94C102.05,299.56,25.98,246.14,3.58,222.04h0c30.98,49.48,99.24,89.08,155.34,112.79,56.1,23.7,116.19,86.19,116.19,86.19,0,0-61.64-79.25-119.26-101.08Z"/>
            <path class="cls-7" d="M122.15,256.59c-43.83-15.47-106.47-58.17-129.81-74.65h0c23.14,35.18,116.44,86.08,168.6,102.87,52.16,16.79,131.41,79.16,131.41,79.16,0,0-81.04-75.9-170.2-107.37Z"/>
            <path class="cls-7" d="M-8.31,165.16l-7.07,1.37s24.86-1.88,40.63,6.18c15.77,8.06,106.61,39.38,129.47,49.42,22.86,10.04,104.92,57.06,104.92,57.06C96.57,163.75,14.86,162.29-8.31,165.16Z"/>
            <path class="cls-7" d="M213.2,215.24C117.21,119.56-.2,130.49-21.82,133.46l-3.52.54,71.99,7.75c91.89,8.32,166.55,73.49,166.55,73.49Z"/>
            <path class="cls-7" d="M39.25,307.91S-33.59,160.99-31.97,87.73"/>
          </g>
          <g>
            <path class="cls-6" d="M1999.73,3.21s-54.57-5.61-77.13-21.18c-22.57-15.57-115.38,36.35-145.89,101.41,0,0-86.24,72.48-100.75,93.78-14.51,21.3-15.78,71.94-15.78,71.94,0,0,54.14-50.76,90.69-62.31,36.55-11.55,62.47-62.51,77.64-76.61,15.17-14.09,55.01-15.37,67.3-22.36,12.29-6.99,43.22-80.32,103.93-84.66Z"/>
            <path class="cls-9" d="M1780.08,76.78c33.44-61.89,120.72-109.8,142.52-94.76,22.57,15.57,77.13,21.18,77.13,21.18-6.75.48-16.61-1.92-22.64.08-90.71,14.48-139.22,29.4-197.01,73.49Z"/>
            <path class="cls-5" d="M1776.71,83.43c76.5-57.68,207.38-123.03,295.09-55.22,5.68,4.48,10.98,9.4,15.97,14.61l-4,3.82c-9.72-9.91-20.71-18.55-32.86-25.26-84.8-46.23-202.76,11.43-274.19,62.04h0Z"/>
            <path class="cls-5" d="M1932.23,9.97c-21.79,18.16-42.42,38.32-58.52,61.8,3.69-6.11,7.69-12.06,11.97-17.8,12.99-17.19,27.67-32.97,43.53-47.58,0,0,3.02,3.57,3.02,3.57h0Z"/>
            <path class="cls-5" d="M1893.49,21.16c-12.96,10.8-25.38,22.42-37.08,34.6-11.64,12.29-22.7,25.25-31.46,39.79,12.56-22.24,29.88-41.38,47.79-59.43,6.04-6,12.18-11.86,18.58-17.53l2.16,2.57h0Z"/>
            <path class="cls-5" d="M1847.6,40.94c-35.27,35.51-67.86,74.79-90.41,119.73,16.22-34.14,38.78-64.87,63.21-93.57,8.21-9.56,16.64-18.89,25.51-27.89l1.69,1.73h0Z"/>
            <path class="cls-5" d="M1801.66,66.12c-10.47,9.91-15.19,14.68-25.13,25.08-9.91,10.42-19.62,21.02-28.93,31.98-9.3,10.95-18.42,22.09-26.75,33.81-8.33,11.7-16.23,23.77-22.43,36.74,6.46-12.84,14.59-24.72,23.14-36.22,8.55-11.52,17.86-22.44,27.36-33.18,9.51-10.73,19.41-21.12,29.5-31.3,10.1-10.16,25.61-24.95,36.18-34.56l-12.94,7.65Z"/>
          </g>
        </g>
      </g>
    </g>
  </g>
</svg>