<?xml version="1.0" encoding="UTF-8"?>
<svg id="Capa_2" data-name="Capa 2" xmlns="http://www.w3.org/2000/svg" viewBox="0 0 343.94 307.36">
  <defs>
    <style>
      .cls-1 {
        stroke: #4f7e5a;
        stroke-width: 3.9px;
      }

      .cls-1, .cls-2 {
        fill: none;
        stroke-miterlimit: 10;
      }

      .cls-2 {
        stroke: #fff;
        stroke-linecap: round;
        stroke-width: 9.74px;
      }

      .cls-3 {
        fill: #e9a329;
      }

      .cls-3, .cls-4 {
        stroke-width: 0px;
      }

      .cls-4 {
        fill: #e08623;
      }
    </style>
  </defs>
  <g id="ELEMENTS_2" data-name="ELEMENTS 2">
    <g>
      <path class="cls-3" d="M106.43,105.48s10.71-45.05,37.08-66C169.9,18.54,190.27,0,190.27,0c0,0-1.19,7.41,11.37,34.28,12.55,26.87,18.73,71.18,9.88,87.42-8.86,16.24-29.56,40.06-29.56,40.06l-75.52-56.28Z"/>
      <path class="cls-4" d="M211.51,121.7c7.46-13.69,4.23-47.27-4.48-73.59-6.25,5.05-11.01,10.98-12.77,17.37-5.2,18.92-22.81,20.07.45,80.66,5.97-7.68,12.67-16.88,16.79-24.45Z"/>
      <path class="cls-4" d="M106.43,105.48l75.52,56.28s16.59-19.09,26.42-34.74c-24-22.9-62.65-59.1-79.68-71.45-15.64,22.08-22.26,49.92-22.26,49.92Z"/>
      <path class="cls-4" d="M343.94,79.6s-69.65,82.08-130.26,92.88c0,0,41.44-141.6,130.26-92.88Z"/>
      <path class="cls-3" d="M6.23,111.7s-10.23,39.29,74.04,60.63c84.27,21.35,117.44,12.72,117.44,12.72l19.56-35.77s-98.22-76.87-115.63-82.9c-17.42-6.02-41.92-3.97-50.63,3.86-8.71,7.83-47.96,23.09-44.76,41.46Z"/>
      <path class="cls-4" d="M184.92,124.37c-43.56,24.54-125.71,36.01-173.34,9.52,7.93,12.51,26.42,27.74,68.69,38.45,84.27,21.35,117.44,12.72,117.44,12.72l19.56-35.77s-13.99-10.95-32.35-24.91Z"/>
      <path class="cls-1" d="M111.32,106.24s57.02,8.8,93.46,59.05"/>
      <path class="cls-1" d="M112.19,133.06s56.33,7.86,82.26,34.38"/>
      <path class="cls-1" d="M164.44,94.42s32.29,43.88,37.01,66.44"/>
      <path class="cls-1" d="M136.8,162.71s39.82-2.19,62.86,9.7"/>
      <line class="cls-2" x1="156.89" y1="86.58" x2="179.65" y2="116.79"/>
      <path class="cls-2" d="M102.36,104.85s34.22,6.8,49.3,15.56"/>
      <path class="cls-2" d="M102.41,131.54s38.13,6.61,51.89,12.35"/>
      <path class="cls-2" d="M124.78,160.86s33.07.47,40.34,2.06"/>
      <path class="cls-3" d="M210.17,179.04s48.21-47.6,53.05-62.7c4.83-15.1,18.13-36.4,34.11-37.27,15.98-.87,46.62.53,46.62.53,0,0-11.32-40.11-32.57-37.55-21.24,2.56-32.71,6.63-49.69,3.17-16.98-3.46-54.46,12.44-60.17,33.24-5.71,20.8-26.45,20.1,8.66,100.58Z"/>
      <path class="cls-3" d="M197.71,185.05s-58.81,39.7-72.61,53.41c-13.79,13.72-77.97,56.66-111.09,49.72-33.12-6.94,2.19-68.2,7.33-79.92,5.14-11.72,31.92-50.11,66.19-39.82,34.27,10.29,110.17,16.6,110.17,16.6Z"/>
      <path class="cls-3" d="M172.73,178.44s-35.49,46.23-17.9,78.13c17.59,31.91,70.41,51.73,107.25,50.75,0,0-10.13-42.43-5.16-69.18,4.96-26.75,13.32-75.5-28.09-82.73-41.42-7.23-56.1,23.03-56.1,23.03Z"/>
      <path class="cls-4" d="M256.92,238.14c.06-.34.13-.69.19-1.04-18.66,18.92-48.1,22.51-70.24,5.8-20.54-15.5-22.42-39.47-16-61.89-7.05,10.11-31.17,48.11-16.04,75.56,17.59,31.91,70.41,51.73,107.25,50.75,0,0-10.13-42.43-5.17-69.18Z"/>
    </g>
  </g>
</svg>