<?xml version="1.0" encoding="UTF-8"?>
<svg id="Capa_2" data-name="Capa 2" xmlns="http://www.w3.org/2000/svg" viewBox="0 0 307.26 307.26">
  <defs>
    <style>
      .cls-play {
                                fill: rgb(23, 155, 232);
                            }

      .cls-1, .cls-2 {
        stroke-width: 0px;
      }

      .cls-circle {
        fill: none;
        stroke: #0f0c2c;
        stroke-miterlimit: 10;
        stroke-width: 17.39px;
      }

      .cls-tempo {
        fill: #fff;
      }
    </style>
  </defs>
  <g id="VIDEO">
    <g>
      <circle class="cls-tempo" cx="153.63" cy="153.63" r="123.11"/>
      <circle class="cls-circle" cx="153.63" cy="153.63" r="144.94"/>
      <g>
        <path class="cls-1" d="M114.09,152.56c0-14.72-.01-29.44.01-44.17,0-2.82-.07-5.66.25-8.45,1.29-11.16,9.85-16.33,20.26-12.14,2.87,1.16,5.53,2.91,8.17,4.58,23.52,14.93,46.71,30.41,70.62,44.69,15.15,9.05,17.3,21.46.03,31.84-23.87,14.35-47.12,29.74-70.65,44.65-2.64,1.67-5.27,3.47-8.14,4.62-10.41,4.18-19-.98-20.27-12.08-.35-3.1-.26-6.25-.26-9.38-.02-14.72-.01-29.44,0-44.17ZM122.08,152.76c0,16.3-.14,32.6.05,48.89.11,9.91,4.46,12.15,13.13,7.17.81-.47,1.57-1.03,2.37-1.53,23.79-15.13,47.58-30.25,71.36-45.39,1.85-1.18,3.77-2.29,5.41-3.73,4.16-3.66,4.23-6.49.27-10.15-1.36-1.26-3.03-2.21-4.61-3.22-24.3-15.49-48.6-30.97-72.93-46.41-2.1-1.34-4.3-2.68-6.63-3.47-3.85-1.31-6.89.33-7.88,4.3-.6,2.38-.51,4.97-.52,7.47-.04,15.36-.02,30.71-.01,46.07Z"/>
        <path class="cls-1" d="M136.54,198.94c-.95-.22-1.51-1.03-1.19-1.95.28-.8.94-1.63,1.67-2.09,6.8-4.33,13.65-8.58,20.49-12.85.87-.54,1.79-.56,2.55.07.77.64,1.21,1.64.18,2.3-7.53,4.88-15.1,9.69-22.68,14.5-.22.14-.6.02-1.02.02Z"/>
        <path class="cls-1" d="M170.01,178.79c-.93.1-1.82-.13-2.07-1.06-.38-1.36.29-2.28,1.7-2.52.88-.15,1.86.01,2.11.97.36,1.37-.46,2.2-1.73,2.61Z"/>
      </g>
    </g>
  </g>
</svg>