<?xml version="1.0" encoding="UTF-8"?>
<svg id="Capa_3" data-name="Capa 2" xmlns="http://www.w3.org/2000/svg" xmlns:xlink="http://www.w3.org/1999/xlink" viewBox="0 0 441.09 440.94">
  <defs>
    <style>
      .cls-1 {
        filter: url(#outer-glow-1);
      }

      .cls-2 {
        fill: #d5e8f1;
        stroke-width: 0px;
      }

      .cls-3 {
        filter: url(#outer-glow-2);
      }
    </style>
    <filter id="outer-glow-1" filterUnits="userSpaceOnUse">
      <feOffset dx="0" dy="0"/>
      <feGaussianBlur result="blur" stdDeviation="17.12"/>
      <feFlood flood-color="#a1e5f7" flood-opacity=".7"/>
      <feComposite in2="blur" operator="in"/>
      <feComposite in="SourceGraphic"/>
    </filter>
    <filter id="outer-glow-2" filterUnits="userSpaceOnUse">
      <feOffset dx="0" dy="0"/>
      <feGaussianBlur result="blur-2" stdDeviation="17.12"/>
      <feFlood flood-color="#a1e5f7" flood-opacity=".7"/>
      <feComposite in2="blur-2" operator="in"/>
      <feComposite in="SourceGraphic"/>
    </filter>
  </defs>
  <g id="ELEMENTS">
    <g>
      <g class="cls-1">
        <circle class="cls-2" cx="153.91" cy="217.81" r="3.04"/>
        <path class="cls-2" d="M363,181.86c-1.68,0-3.04-1.36-3.04-3.04s1.36-3.04,3.04-3.04,3.04,1.36,3.04,3.04-1.36,3.04-3.04,3.04Z"/>
        <path class="cls-2" d="M224,316.13c-1.68,0-3.04-1.36-3.04-3.04s1.36-3.04,3.04-3.04,3.04,1.36,3.04,3.04-1.36,3.04-3.04,3.04Z"/>
        <path class="cls-2" d="M288.74,335.48c-1.68,0-3.04-1.36-3.04-3.04s1.36-3.04,3.04-3.04,3.04,1.36,3.04,3.04-1.36,3.04-3.04,3.04Z"/>
        <path class="cls-2" d="M264.72,246.14c-1.68,0-3.04-1.36-3.04-3.04s1.36-3.04,3.04-3.04,3.04,1.36,3.04,3.04-1.36,3.04-3.04,3.04Z"/>
        <path class="cls-2" d="M320.23,220.47c-1.68,0-3.04-1.36-3.04-3.04s1.36-3.04,3.04-3.04,3.04,1.36,3.04,3.04-1.36,3.04-3.04,3.04Z"/>
        <path class="cls-2" d="M3.04,195.96c-1.68,0-3.04-1.36-3.04-3.04s1.36-3.04,3.04-3.04,3.04,1.36,3.04,3.04-1.36,3.04-3.04,3.04Z"/>
        <circle class="cls-2" cx="202.36" cy="285.96" r="3.88"/>
        <path class="cls-2" d="M35.19,301.12c-2.15,0-3.89-1.74-3.89-3.89s1.74-3.88,3.89-3.88,3.88,1.74,3.88,3.88-1.74,3.89-3.88,3.89Z"/>
        <path class="cls-2" d="M25.16,404.12c-2.15,0-3.88-1.74-3.88-3.88s1.74-3.89,3.88-3.89,3.88,1.74,3.88,3.89-1.74,3.88-3.88,3.88Z"/>
        <path class="cls-2" d="M161.08,183.34c-1.14,0-2.07-.92-2.07-2.06s.92-2.06,2.07-2.06,2.06.92,2.06,2.06-.92,2.06-2.06,2.06Z"/>
        <path class="cls-2" d="M52.6,192.23c-1.14,0-2.07-.92-2.07-2.07s.92-2.06,2.07-2.06,2.06.92,2.06,2.06-.92,2.07-2.06,2.07Z"/>
        <path class="cls-2" d="M377.37,242.12c-1.14,0-2.06-.92-2.06-2.06s.92-2.07,2.06-2.07,2.07.92,2.07,2.07-.92,2.06-2.07,2.06Z"/>
        <path class="cls-2" d="M439.03,193.04c-1.14,0-2.07-.92-2.07-2.07s.92-2.07,2.07-2.07,2.06.92,2.06,2.07-.92,2.07-2.06,2.07Z"/>
        <path class="cls-2" d="M27.22,161.55c-1.14,0-2.06-.92-2.06-2.07s.92-2.06,2.06-2.06,2.06.92,2.06,2.06-.92,2.07-2.06,2.07Z"/>
        <path class="cls-2" d="M221.68,160.31c-1.14,0-2.07-.92-2.07-2.07s.92-2.06,2.07-2.06,2.07.92,2.07,2.06-.92,2.07-2.07,2.07Z"/>
        <path class="cls-2" d="M388.69,159.6c-1.14,0-2.07-.92-2.07-2.06s.92-2.06,2.07-2.06,2.06.92,2.06,2.06-.92,2.06-2.06,2.06Z"/>
        <path class="cls-2" d="M186.55,320.67c-1.14,0-2.07-.92-2.07-2.06s.92-2.07,2.07-2.07,2.06.92,2.06,2.07-.92,2.06-2.06,2.06Z"/>
        <path class="cls-2" d="M273.71,302.42c-1.14,0-2.06-.92-2.06-2.07s.92-2.06,2.06-2.06,2.07.92,2.07,2.06-.92,2.07-2.07,2.07Z"/>
        <path class="cls-2" d="M288.83,265.23c-1.14,0-2.06-.92-2.06-2.06s.92-2.07,2.06-2.07,2.06.92,2.06,2.07-.92,2.06-2.06,2.06Z"/>
        <path class="cls-2" d="M208.97,350.82c-1.14,0-2.07-.92-2.07-2.06s.92-2.06,2.07-2.06,2.06.92,2.06,2.06-.92,2.06-2.06,2.06Z"/>
        <path class="cls-2" d="M62.21,314.12c-1.14,0-2.06-.92-2.06-2.06s.92-2.07,2.06-2.07,2.06.92,2.06,2.07-.92,2.06-2.06,2.06Z"/>
        <path class="cls-2" d="M37.01,429.2c-1.14,0-2.06-.92-2.06-2.06s.92-2.07,2.06-2.07,2.06.92,2.06,2.07-.92,2.06-2.06,2.06Z"/>
        <circle class="cls-2" cx="135.29" cy="285.96" r="2.06"/>
      </g>
      <g class="cls-3">
        <circle class="cls-2" cx="137.86" cy="286.5" r="3.04"/>
        <path class="cls-2" d="M97.21,78.28c.04,1.68-1.29,3.07-2.97,3.11-1.68.04-3.07-1.29-3.11-2.97s1.29-3.07,2.97-3.11,3.07,1.29,3.11,2.97Z"/>
        <path class="cls-2" d="M234.58,214.21c.04,1.68-1.29,3.07-2.97,3.11-1.68.04-3.07-1.29-3.11-2.97s1.29-3.07,2.97-3.11,3.07,1.29,3.11,2.97Z"/>
        <path class="cls-2" d="M252.46,149.06c.04,1.68-1.29,3.07-2.97,3.11s-3.07-1.29-3.11-2.97c-.04-1.68,1.29-3.07,2.97-3.11,1.68-.04,3.07,1.29,3.11,2.97Z"/>
        <path class="cls-2" d="M163.68,175.09c.04,1.68-1.29,3.07-2.97,3.11s-3.07-1.29-3.11-2.97,1.29-3.07,2.97-3.11,3.07,1.29,3.11,2.97Z"/>
        <path class="cls-2" d="M136.77,120.17c.04,1.68-1.29,3.07-2.97,3.11-1.68.04-3.07-1.29-3.11-2.97s1.29-3.07,2.97-3.11c1.68-.04,3.07,1.29,3.11,2.97Z"/>
        <path class="cls-2" d="M119.41,437.83c.04,1.68-1.29,3.07-2.97,3.11-1.68.04-3.07-1.29-3.11-2.97s1.29-3.07,2.97-3.11,3.07,1.29,3.11,2.97Z"/>
        <circle class="cls-2" cx="204.9" cy="236.53" r="3.88" transform="translate(-5.28 4.68) rotate(-1.29)"/>
        <path class="cls-2" d="M223.82,403.32c.05,2.15-1.65,3.92-3.8,3.97s-3.92-1.65-3.97-3.8c-.05-2.15,1.65-3.92,3.8-3.97,2.15-.05,3.92,1.65,3.97,3.8Z"/>
        <path class="cls-2" d="M327.03,411.03c.05,2.15-1.65,3.92-3.8,3.97s-3.92-1.65-3.97-3.8,1.65-3.92,3.8-3.97,3.92,1.65,3.97,3.8Z"/>
        <path class="cls-2" d="M103.24,280.11c.03,1.14-.88,2.09-2.02,2.11s-2.09-.88-2.11-2.02.88-2.08,2.02-2.11,2.09.88,2.11,2.02Z"/>
        <path class="cls-2" d="M114.57,388.37c.03,1.14-.88,2.09-2.02,2.11s-2.09-.88-2.11-2.02.88-2.09,2.02-2.11,2.09.88,2.11,2.02Z"/>
        <path class="cls-2" d="M157.13,62.56c.03,1.14-.88,2.09-2.02,2.11s-2.09-.88-2.11-2.02.88-2.09,2.02-2.11,2.09.88,2.11,2.02Z"/>
        <path class="cls-2" d="M106.67,2.02c.03,1.14-.88,2.09-2.02,2.11-1.14.03-2.09-.88-2.11-2.02S103.42.03,104.56,0c1.14-.03,2.09.88,2.11,2.02Z"/>
        <path class="cls-2" d="M84.47,414.43c.03,1.14-.88,2.09-2.02,2.11s-2.09-.88-2.11-2.02.88-2.09,2.02-2.11,2.09.88,2.11,2.02Z"/>
        <path class="cls-2" d="M78.85,220.04c.03,1.14-.88,2.09-2.02,2.11s-2.09-.88-2.11-2.02c-.03-1.14.88-2.09,2.02-2.11s2.09.88,2.11,2.02Z"/>
        <path class="cls-2" d="M74.37,53.1c.03,1.14-.88,2.09-2.02,2.11-1.14.03-2.09-.88-2.11-2.02s.88-2.09,2.02-2.11c1.14-.03,2.09.88,2.11,2.02Z"/>
        <path class="cls-2" d="M239.95,251.56c.03,1.14-.88,2.09-2.02,2.11s-2.09-.88-2.11-2.02c-.03-1.14.88-2.09,2.02-2.11s2.09.88,2.11,2.02Z"/>
        <path class="cls-2" d="M219.75,164.83c.03,1.14-.88,2.08-2.02,2.11s-2.09-.88-2.11-2.02c-.03-1.14.88-2.09,2.02-2.11s2.09.88,2.11,2.02Z"/>
        <path class="cls-2" d="M182.22,150.55c.03,1.14-.88,2.09-2.02,2.11s-2.09-.88-2.11-2.02c-.03-1.14.88-2.09,2.02-2.11s2.09.88,2.11,2.02Z"/>
        <path class="cls-2" d="M269.59,228.46c.03,1.14-.88,2.09-2.02,2.11s-2.09-.88-2.11-2.02.88-2.08,2.02-2.11c1.14-.03,2.09.88,2.11,2.02Z"/>
        <path class="cls-2" d="M236.21,376.02c.03,1.14-.88,2.09-2.02,2.11s-2.09-.88-2.11-2.02.88-2.09,2.02-2.11,2.09.88,2.11,2.02Z"/>
        <path class="cls-2" d="M351.83,398.62c.03,1.14-.88,2.09-2.02,2.11s-2.09-.88-2.11-2.02.88-2.09,2.02-2.11c1.14-.03,2.09.88,2.11,2.02Z"/>
        <circle class="cls-2" cx="206.41" cy="303.59" r="2.06"/>
      </g>
    </g>
  </g>
</svg>