<?xml version="1.0" encoding="UTF-8"?>
<svg id="Capa_2" data-name="Capa 2" xmlns="http://www.w3.org/2000/svg" xmlns:xlink="http://www.w3.org/1999/xlink" viewBox="0 0 1406.58 239.31">
  <defs>
    <style>
      .cls-1 {
        filter: url(#outer-glow-1);
      }

      .cls-2 {
        fill: #d5e8f1;
        stroke-width: 0px;
        animation: colorGroup 5s infinite;
  animation-timing-function: ease-in-out;
  animation-fill-mode: forwards;
  animation-play-state: running;
  animation-delay: 3s; /* Pausa inicial */
      }

@keyframes colorGroup {
  0% {
    fill: #d5e8f1;
  }
  25% {
    fill: #c1dbe7;
  }
  50% {
    fill: #e0eef6;
  }
  75% {
    fill: #b3cfdd;
  }
  100% {
    fill: #d5e8f1;
  }
}

@keyframes pauseAnimation {
  0% {
    animation-play-state: running;
  }
  100% {
    animation-play-state: paused;
  }
}

.cls-2 {
  animation: colorGroup 5s infinite, pauseAnimation 8s infinite;
  animation-timing-function: ease-in-out, step-end;
}
      .cls-3 {
        filter: url(#outer-glow-2);
      }
    </style>
    <filter id="outer-glow-1" filterUnits="userSpaceOnUse">
      <feOffset dx="0" dy="0"/>
      <feGaussianBlur result="blur" stdDeviation="14.96"/>
      <feFlood flood-color="#a1e5f7" flood-opacity=".7"/>
      <feComposite in2="blur" operator="in"/>
      <feComposite in="SourceGraphic"/>
    </filter>
    <filter id="outer-glow-2" filterUnits="userSpaceOnUse">
      <feOffset dx="0" dy="0"/>
      <feGaussianBlur result="blur-2" stdDeviation="20"/>
      <feFlood flood-color="#a1e5f7" flood-opacity=".7"/>
      <feComposite in2="blur-2" operator="in"/>
      <feComposite in="SourceGraphic"/>
    </filter>
  </defs>
  <g id="ELEMENTS">
    <g class="cls-1">
      <circle class="cls-2" cx="251.06" cy="184.81" r="2.66"/>
      <path class="cls-2" d="M68.27,216.23c1.47,0,2.66,1.19,2.66,2.66s-1.19,2.66-2.66,2.66-2.66-1.19-2.66-2.66,1.19-2.66,2.66-2.66Z"/>
      <path class="cls-2" d="M189.79,98.85c1.47,0,2.66,1.19,2.66,2.66s-1.19,2.66-2.66,2.66-2.66-1.19-2.66-2.66,1.19-2.66,2.66-2.66Z"/>
      <path class="cls-2" d="M133.2,81.94c1.47,0,2.66,1.19,2.66,2.66s-1.19,2.66-2.66,2.66-2.66-1.19-2.66-2.66,1.19-2.66,2.66-2.66Z"/>
      <path class="cls-2" d="M154.19,160.04c1.47,0,2.66,1.19,2.66,2.66s-1.19,2.66-2.66,2.66-2.66-1.19-2.66-2.66,1.19-2.66,2.66-2.66Z"/>
      <path class="cls-2" d="M105.67,182.48c1.47,0,2.66,1.19,2.66,2.66s-1.19,2.66-2.66,2.66-2.66-1.19-2.66-2.66,1.19-2.66,2.66-2.66Z"/>
      <path class="cls-2" d="M382.96,203.91c1.47,0,2.66,1.19,2.66,2.66s-1.19,2.66-2.66,2.66-2.66-1.19-2.66-2.66,1.19-2.66,2.66-2.66Z"/>
      <circle class="cls-2" cx="208.71" cy="125.23" r="3.4"/>
      <path class="cls-2" d="M354.86,111.97c1.88,0,3.4,1.52,3.4,3.4s-1.52,3.4-3.4,3.4-3.4-1.52-3.4-3.4,1.52-3.4,3.4-3.4Z"/>
      <path class="cls-2" d="M363.63,21.92c1.88,0,3.4,1.52,3.4,3.4s-1.52,3.4-3.4,3.4-3.4-1.52-3.4-3.4,1.52-3.4,3.4-3.4Z"/>
      <path class="cls-2" d="M244.8,214.94c1,0,1.81.81,1.81,1.81s-.81,1.81-1.81,1.81-1.81-.81-1.81-1.81.81-1.81,1.81-1.81Z"/>
      <path class="cls-2" d="M339.63,207.17c1,0,1.81.81,1.81,1.81s-.81,1.81-1.81,1.81-1.81-.81-1.81-1.81.81-1.81,1.81-1.81Z"/>
      <path class="cls-2" d="M55.71,163.55c1,0,1.81.81,1.81,1.81s-.81,1.81-1.81,1.81-1.81-.81-1.81-1.81.81-1.81,1.81-1.81Z"/>
      <path class="cls-2" d="M1.81,206.46c1,0,1.81.81,1.81,1.81s-.81,1.81-1.81,1.81-1.81-.81-1.81-1.81.81-1.81,1.81-1.81Z"/>
      <path class="cls-2" d="M361.82,233.99c1,0,1.81.81,1.81,1.81s-.81,1.81-1.81,1.81-1.81-.81-1.81-1.81.81-1.81,1.81-1.81Z"/>
      <path class="cls-2" d="M191.82,235.07c1,0,1.81.81,1.81,1.81s-.81,1.81-1.81,1.81-1.81-.81-1.81-1.81.81-1.81,1.81-1.81Z"/>
      <path class="cls-2" d="M45.82,235.7c1,0,1.81.81,1.81,1.81s-.81,1.81-1.81,1.81-1.81-.81-1.81-1.81.81-1.81,1.81-1.81Z"/>
      <path class="cls-2" d="M222.53,94.88c1,0,1.81.81,1.81,1.81s-.81,1.81-1.81,1.81-1.81-.81-1.81-1.81.81-1.81,1.81-1.81Z"/>
      <path class="cls-2" d="M146.33,110.83c1,0,1.81.81,1.81,1.81s-.81,1.81-1.81,1.81-1.81-.81-1.81-1.81.81-1.81,1.81-1.81Z"/>
      <path class="cls-2" d="M133.11,143.35c1,0,1.81.81,1.81,1.81s-.81,1.81-1.81,1.81-1.81-.81-1.81-1.81.81-1.81,1.81-1.81Z"/>
      <path class="cls-2" d="M202.93,68.53c1,0,1.81.81,1.81,1.81s-.81,1.81-1.81,1.81-1.81-.81-1.81-1.81.81-1.81,1.81-1.81Z"/>
      <path class="cls-2" d="M331.24,100.61c1,0,1.81.81,1.81,1.81s-.81,1.81-1.81,1.81-1.81-.81-1.81-1.81.81-1.81,1.81-1.81Z"/>
      <path class="cls-2" d="M353.27,0c1,0,1.81.81,1.81,1.81s-.81,1.81-1.81,1.81-1.81-.81-1.81-1.81.81-1.81,1.81-1.81Z"/>
      <circle class="cls-2" cx="267.35" cy="125.23" r="1.81"/>
    </g>
    <g class="cls-3">
      <circle class="cls-2" cx="1061.35" cy="227.58" r="3.55"/>
      <path class="cls-2" d="M903.3,203c-1.96,0-3.55,1.59-3.55,3.55s1.59,3.55,3.55,3.55,3.55-1.59,3.55-3.55c0-1.96-1.59-3.55-3.55-3.55Z"/>
      <path class="cls-2" d="M1170.98,142.24c-1.96,0-3.55,1.59-3.55,3.55s1.59,3.55,3.55,3.55c1.96,0,3.55-1.59,3.55-3.55s-1.59-3.55-3.55-3.55Z"/>
      <path class="cls-2" d="M1246.62,119.64c-1.96,0-3.55,1.59-3.55,3.55,0,1.96,1.59,3.55,3.55,3.55,1.96,0,3.55-1.59,3.55-3.55,0-1.96-1.59-3.55-3.55-3.55Z"/>
      <path class="cls-2" d="M1218.55,224.03c-1.96,0-3.55,1.59-3.55,3.55,0,1.96,1.59,3.55,3.55,3.55,1.96,0,3.55-1.59,3.55-3.55,0-1.96-1.59-3.55-3.55-3.55Z"/>
      <path class="cls-2" d="M1321.21,165.31c-1.96,0-3.55,1.59-3.55,3.55,0,1.96,1.59,3.55,3.55,3.55s3.55-1.59,3.55-3.55-1.59-3.55-3.55-3.55Z"/>
      <path class="cls-2" d="M833.38,207.82c-1.96,0-3.55,1.59-3.55,3.55,0,1.96,1.59,3.55,3.55,3.55s3.55-1.59,3.55-3.55c0-1.96-1.59-3.55-3.55-3.55Z"/>
      <circle class="cls-2" cx="1145.69" cy="177.5" r="4.54"/>
      <path class="cls-2" d="M659.64,187.4c-2.51,0-4.54,2.03-4.54,4.54,0,2.51,2.03,4.54,4.54,4.54s4.54-2.03,4.54-4.54-2.03-4.54-4.54-4.54Z"/>
      <path class="cls-2" d="M938.63,39.42c-2.51,0-4.54,2.03-4.54,4.54s2.03,4.54,4.54,4.54c2.51,0,4.54-2.03,4.54-4.54s-2.03-4.54-4.54-4.54Z"/>
      <path class="cls-2" d="M873.23,219.2c-1.33,0-2.41,1.08-2.41,2.41s1.08,2.41,2.41,2.41,2.41-1.08,2.41-2.41-1.08-2.41-2.41-2.41Z"/>
      <path class="cls-2" d="M777.23,199.31c-1.33,0-2.41,1.08-2.41,2.41s1.08,2.41,2.41,2.41,2.41-1.08,2.41-2.41c0-1.33-1.08-2.41-2.41-2.41Z"/>
      <path class="cls-2" d="M1350.19,228.72c-1.33,0-2.41,1.08-2.41,2.41,0,1.33,1.08,2.41,2.41,2.41s2.41-1.08,2.41-2.41c0-1.33-1.08-2.41-2.41-2.41Z"/>
      <path class="cls-2" d="M1404.17,147c-1.33,0-2.41,1.08-2.41,2.41,0,1.33,1.08,2.41,2.41,2.41s2.41-1.08,2.41-2.41-1.08-2.41-2.41-2.41Z"/>
      <path class="cls-2" d="M736.34,187.11c-1.33,0-2.41,1.08-2.41,2.41s1.08,2.41,2.41,2.41,2.41-1.08,2.41-2.41c0-1.33-1.08-2.41-2.41-2.41Z"/>
      <path class="cls-2" d="M733.93,219.2c-1.33,0-2.41,1.08-2.41,2.41,0,1.33,1.08,2.41,2.41,2.41s2.41-1.08,2.41-2.41c0-1.33-1.08-2.41-2.41-2.41Z"/>
      <path class="cls-2" d="M973.11,206.55c-1.33,0-2.41,1.08-2.41,2.41,0,1.33,1.08,2.41,2.41,2.41s2.41-1.08,2.41-2.41c0-1.33-1.08-2.41-2.41-2.41Z"/>
      <path class="cls-2" d="M1127.21,136.94c-1.33,0-2.41,1.08-2.41,2.41,0,1.33,1.08,2.41,2.41,2.41s2.41-1.08,2.41-2.41c0-1.33-1.08-2.41-2.41-2.41Z"/>
      <path class="cls-2" d="M1229.06,158.26c-1.33,0-2.41,1.08-2.41,2.41s1.08,2.41,2.41,2.41c1.33,0,2.41-1.08,2.41-2.41s-1.08-2.41-2.41-2.41Z"/>
      <path class="cls-2" d="M1246.73,201.73c-1.33,0-2.41,1.08-2.41,2.41s1.08,2.41,2.41,2.41,2.41-1.08,2.41-2.41-1.08-2.41-2.41-2.41Z"/>
      <path class="cls-2" d="M1153.41,101.71c-1.33,0-2.41,1.08-2.41,2.41,0,1.33,1.08,2.41,2.41,2.41s2.41-1.08,2.41-2.41-1.08-2.41-2.41-2.41Z"/>
      <path class="cls-2" d="M981.92,144.59c-1.33,0-2.41,1.08-2.41,2.41,0,1.33,1.08,2.41,2.41,2.41s2.41-1.08,2.41-2.41c0-1.33-1.08-2.41-2.41-2.41Z"/>
      <path class="cls-2" d="M952.48,10.12c-1.33,0-2.41,1.08-2.41,2.41s1.08,2.41,2.41,2.41,2.41-1.08,2.41-2.41-1.08-2.41-2.41-2.41Z"/>
      <circle class="cls-2" cx="1067.31" cy="177.5" r="2.41"/>
    </g>
  </g>
</svg>