<?xml version="1.0" encoding="UTF-8"?>
<svg id="Capa_2" xmlns="http://www.w3.org/2000/svg" viewBox="0 0 513.93 513.93">
  <defs>
    <style>
      .cls-1 {
        fill: #fff;
      }
    </style>
  </defs>
  <g id="Objects">
    <g>
      <path class="cls-1" d="M343.29,237.66l-4.15,33.29c-.7,5.57-5.41,9.75-10.99,9.75h-53.92v139.18c-5.69.52-11.45.77-17.27.77-13.02,0-25.74-1.3-38.03-3.78v-136.17h-41.47c-3.81,0-6.91-3.12-6.91-6.94v-41.65c0-3.81,3.11-6.94,6.91-6.94h41.47v-62.47c0-38.34,30.95-69.41,69.13-69.41h48.38c3.81,0,6.91,3.12,6.91,6.94v41.65c0,3.81-3.11,6.94-6.91,6.94h-34.56c-15.26,0-27.64,12.43-27.64,27.77v48.59h58.06c6.66,0,11.82,5.87,10.99,12.5Z"/>
      <path class="cls-1" d="M403.93,513.93H110c-60.65,0-110-49.35-110-110V110C0,49.35,49.35,0,110,0h293.93c60.65,0,110,49.35,110,110v293.93c0,60.65-49.35,110-110,110ZM110,20c-49.63,0-90,40.37-90,90v293.93c0,49.63,40.37,90,90,90h293.93c49.63,0,90-40.37,90-90V110c0-49.63-40.37-90-90-90H110Z"/>
    </g>
  </g>
</svg>