<?xml version="1.0" encoding="UTF-8"?>
<svg id="Capa_2" data-name="Capa 2" xmlns="http://www.w3.org/2000/svg" viewBox="0 0 72.33 72.33">
  <defs>
    <style>
    <!--  .cls-1 {
        fill: #1dd360;
      }-->
      
      .cls-1{
        fill: #ff5d40;
     
      }
        .cls-2 {
        fill: #fff; 
        stroke-width: 1px; 
      }
   
     <!-- .cls-1, .cls-2 {
        stroke-width: 0px;
      }

      .cls-2 {
        fill: #fff;
      }
      -->
    </style>
  </defs>
  <g id="Layer_1" data-name="Layer 1">
    <g>
      <circle class="cls-1" cx="36.16" cy="36.16" r="36.16"/>
      <path class="cls-2" d="M48.08,48.35c-.37.63-1.02.97-1.69.97-.33,0-.67-.08-.98-.26-5.12-3-11.05-3.48-15.12-3.35-4.51.14-7.81,1.03-7.85,1.04-1.04.27-2.11-.33-2.4-1.37-.29-1.04.32-2.11,1.36-2.4.15-.05,3.71-1.02,8.66-1.18,2.91-.09,5.72.1,8.33.6,3.32.63,6.34,1.73,8.99,3.27.92.55,1.24,1.75.7,2.67Z"/>
      <path class="cls-2" d="M50.87,37.66c-3.14-1.84-6.71-3.14-10.64-3.89-3.09-.58-6.41-.82-9.87-.71-5.85.19-10.07,1.33-10.24,1.38-1.23.34-1.95,1.61-1.62,2.84.34,1.23,1.62,1.95,2.84,1.62.05-.01,3.96-1.06,9.3-1.23,4.81-.15,11.83.42,17.91,3.98.37.21.76.31,1.16.31.8,0,1.56-.41,2-1.14.65-1.11.27-2.52-.83-3.16Z"/>
      <path class="cls-2" d="M55.37,28.68c-3.84-2.25-8.24-3.84-13.05-4.77-3.8-.72-7.87-1.02-12.12-.87-7.18.23-12.34,1.63-12.56,1.7-1.52.41-2.4,1.97-1.99,3.48.42,1.52,1.97,2.4,3.49,1.99.18-.06,18.92-5.07,33.36,3.37.46.26.95.39,1.44.39.97,0,1.92-.5,2.44-1.4.8-1.35.34-3.09-1.02-3.88Z"/>
    </g>
  </g>
</svg>