<?xml version="1.0" encoding="UTF-8"?>
<svg id="Capa_2" data-name="Capa 2" xmlns="http://www.w3.org/2000/svg" viewBox="0 0 513.93 513.93">
  <defs>
    <style>
      .cls-1 {
        fill: #fff;
        stroke-width: 0px;
      }

      .cls-2 {
        fill: none;
        stroke: #fff;
        stroke-miterlimit: 10;
        stroke-width: 18px;
      }
    </style>
  </defs>
  <g id="Capa_2-2" data-name="Capa 2">
    <g>
      <path class="cls-1" d="M403.93,513.93H110c-60.65,0-110-49.35-110-110V110C0,49.35,49.35,0,110,0h293.93c60.65,0,110,49.35,110,110v293.93c0,60.65-49.35,110-110,110ZM110,20c-49.63,0-90,40.37-90,90v293.93c0,49.63,40.37,90,90,90h293.93c49.63,0,90-40.37,90-90V110c0-49.63-40.37-90-90-90H110Z"/>
      <g>
        <rect class="cls-2" x="71.96" y="146.46" width="370" height="221" rx="29.5" ry="29.5"/>
        <path class="cls-2" d="M83.37,157.6l158.49,95.18c9.29,5.58,20.9,5.58,30.19,0l158.49-95.18"/>
        <line class="cls-2" x1="299.48" y1="236.32" x2="430.56" y2="356.46"/>
        <line class="cls-2" x1="212.96" y1="232.88" x2="78.37" y2="358.84"/>
      </g>
    </g>
  </g>
</svg>