<?xml version="1.0" encoding="UTF-8"?>
<svg id="Capa_2" xmlns="http://www.w3.org/2000/svg" viewBox="0 0 513.93 513.93">
  <defs>
    <style>
      .cls-1 {
        fill: #fff;
      }
    </style>
  </defs>
  <g id="Objects">
    <g>
      <path class="cls-1" d="M334.99,106.11h-156.05c-40.21,0-72.82,32.61-72.82,72.82v156.05c0,40.21,32.62,72.82,72.82,72.82h156.05c40.21,0,72.82-32.62,72.82-72.82v-156.05c0-40.21-32.62-72.82-72.82-72.82ZM381.81,329.79c0,28.71-23.3,52.02-52.02,52.02h-145.65c-28.71,0-52.02-23.3-52.02-52.02v-145.65c0-28.71,23.3-52.02,52.02-52.02h145.65c28.71,0,52.02,23.3,52.02,52.02v145.65Z"/>
      <path class="cls-1" d="M256.96,178.94c-43.07,0-78.03,34.96-78.03,78.03s34.96,78.03,78.03,78.03,78.03-34.96,78.03-78.03-34.96-78.03-78.03-78.03ZM256.96,308.98c-28.66,0-52.02-23.36-52.02-52.02s23.36-52.02,52.02-52.02,52.02,23.36,52.02,52.02-23.36,52.02-52.02,52.02Z"/>
      <path class="cls-1" d="M340.19,189.34c-8.6,0-15.61-7-15.61-15.61s7-15.61,15.61-15.61,15.61,7,15.61,15.61-7,15.61-15.61,15.61Z"/>
      <path class="cls-1" d="M403.93,513.93H110c-60.65,0-110-49.35-110-110V110C0,49.35,49.35,0,110,0h293.93c60.65,0,110,49.35,110,110v293.93c0,60.65-49.35,110-110,110ZM110,20c-49.63,0-90,40.37-90,90v293.93c0,49.63,40.37,90,90,90h293.93c49.63,0,90-40.37,90-90V110c0-49.63-40.37-90-90-90H110Z"/>
    </g>
  </g>
</svg>