<?xml version="1.0" encoding="UTF-8"?>
<svg id="Capa_2" xmlns="http://www.w3.org/2000/svg" viewBox="0 0 513.93 513.93">
  <defs>
    <style>
      .cls-1 {
        fill: #fff;
      }
    </style>
  </defs>
  <g id="Objects">
    <g>
      <path class="cls-1" d="M299.13,315.54v-120.88s13.63,22.71,62.9,24.11c2.63.07,4.8-2.09,4.8-4.71v-34.16c0-2.55-2.03-4.56-4.57-4.7-38.21-2.17-56.36-31.47-58.14-58.35-.17-2.49-2.34-4.38-4.84-4.38h-38.96c-2.6,0-4.7,2.1-4.7,4.7v192.15c0,20.87-15.95,39.03-36.8,40.02-23.83,1.13-43.21-19.33-40.26-43.5,2.08-17.08,15.79-31.06,32.83-33.43,3.38-.47,6.7-.5,9.89-.15,2.83.32,5.33-1.79,5.33-4.64v-34.25c0-2.44-1.85-4.54-4.29-4.69-4.89-.32-9.9-.2-14.98.37-37.58,4.26-67.91,34.67-72.08,72.27-5.49,49.6,33.19,91.58,81.68,91.58,45.4,0,82.2-36.8,82.2-82.2"/>
      <path class="cls-1" d="M403.93,513.93H110c-60.65,0-110-49.35-110-110V110C0,49.35,49.35,0,110,0h293.93c60.65,0,110,49.35,110,110v293.93c0,60.65-49.35,110-110,110ZM110,20c-49.63,0-90,40.37-90,90v293.93c0,49.63,40.37,90,90,90h293.93c49.63,0,90-40.37,90-90V110c0-49.63-40.37-90-90-90H110Z"/>
    </g>
  </g>
</svg>