<?xml version="1.0" encoding="UTF-8"?>
<svg id="Capa_2" xmlns="http://www.w3.org/2000/svg" viewBox="0 0 513.93 513.93">
  <defs>
    <style>
      .cls-1 {
        fill: #fff;
      }
    </style>
  </defs>
  <g id="Objects">
    <g>
      <path class="cls-1" d="M257.09,111.22c-72.84,2.36-132.99,61.35-136.64,134.14-1.31,26.24,4.47,51.04,15.73,72.57l-15.81,70.81c-.67,3.2,2.17,6.04,5.37,5.37l70.81-15.81h.05c21.38,11.17,45.93,16.96,71.97,15.75,72.67-3.36,131.85-63.07,134.66-135.76,3.18-82.33-63.92-149.74-146.14-147.08ZM261.8,364.93c-20.6,0-39.87-5.56-56.47-15.28-1.56-.88-3.07-1.81-4.54-2.78l-45.24,12.05,12.05-45.24c-11.42-17.57-18.06-38.51-18.06-61.01,0-61.88,50.37-112.25,112.25-112.25s112.25,50.37,112.25,112.25-50.37,112.25-112.25,112.25Z"/>
      <path class="cls-1" d="M328.37,302.1c-1.96,2.94-4.01,5.68-7.29,8.95-7.19,7.19-17.18,10.81-27.3,9.79-18.15-1.86-43.94-11.89-66.11-34.01-22.17-22.17-32.2-47.95-34.01-66.11-1.03-10.13,2.59-20.11,9.79-27.3,3.28-3.28,6.02-5.33,8.95-7.34,5.43-3.67,12.82-1.22,14.88,4.94l7.44,22.31c2.06,6.12,1.13,9.98-1.52,12.58l-5.92,5.97c-2.94,2.94-3.43,7.49-1.17,11.01,3.28,5.14,9.44,13.36,20.8,24.71,11.35,11.35,19.57,17.52,24.71,20.8,3.52,2.25,8.07,1.76,11.01-1.17l5.97-5.92c2.59-2.64,6.46-3.57,12.58-1.52l22.31,7.44c6.17,2.06,8.61,9.44,4.89,14.88Z"/>
      <path class="cls-1" d="M403.93,513.93H110c-60.65,0-110-49.35-110-110V110C0,49.35,49.35,0,110,0h293.93c60.65,0,110,49.35,110,110v293.93c0,60.65-49.35,110-110,110ZM110,20c-49.63,0-90,40.37-90,90v293.93c0,49.63,40.37,90,90,90h293.93c49.63,0,90-40.37,90-90V110c0-49.63-40.37-90-90-90H110Z"/>
    </g>
  </g>
</svg>