<?xml version="1.0" encoding="UTF-8"?>
<svg id="Capa_2" xmlns="http://www.w3.org/2000/svg" viewBox="0 0 513.93 513.93">
  <defs>
    <style>
      .cls-1,.cls-2,.cls-3,.cls-4 {
        fill: #fff;
      }
    </style>
  </defs>
  <g id="Objects">
    <g>
      <path class="cls-1" 
      d="M403.93,513.93H110c-60.65,0-110-49.35-110-110V110C0,49.35,49.35,0,110,0h293.93c60.65,0,110,49.35,110,110v293.93c0,60.65-49.35,110-110,110ZM110,20c-49.63,0-90,40.37-90,90v293.93c0,49.63,40.37,90,90,90h293.93c49.63,0,90-40.37,90-90V110c0-49.63-40.37-90-90-90H110Z"/>
      <g>
        <path class="cls-2" d="M383.98,370.68l-93.15-135.33-10.53-15.3-66.63-96.8-5.52-8.02h-81.88l19.97,29.02,88.59,128.73,10.53,15.29,71.19,103.43,5.52,8.01h81.88l-19.97-29.02ZM331.8,381.17l-73.96-107.45-10.53-15.3-85.82-124.68h36.91l69.4,100.84,10.53,15.3,90.37,131.3h-36.91Z"/>
        <polygon class="cls-3" points="247.31 258.43 257.85 273.72 245.36 288.25 149.57 399.69 125.95 399.69 234.83 272.96 247.31 258.43"/>
        <polygon class="cls-4" points="394.09 115.22 290.83 235.35 278.34 249.87 267.81 234.58 280.3 220.05 350.25 138.63 370.47 115.22 394.09 115.22"/>
      </g>
    </g>
  </g>
</svg>