<?xml version="1.0" encoding="UTF-8"?>
<svg id="Capa_2" xmlns="http://www.w3.org/2000/svg" viewBox="0 0 513.93 513.93">
  <defs>
    <style>
      .cls-1 {
        fill: #fff;
      }
    </style>
  </defs>
  <g id="Objects">
    <g>
      <path class="cls-1" d="M371.93,142.91h-221.48c-24.2,0-43.78,19.62-43.78,43.78v136.27c0,24.16,19.58,43.78,43.78,43.78h221.48c24.16,0,43.78-19.62,43.78-43.78v-136.27c0-24.16-19.62-43.78-43.78-43.78ZM297.74,264.65l-63.32,31.64c-7.28,3.62-15.88-1.67-15.88-9.83v-63.28c0-8.16,8.6-13.45,15.88-9.83l63.32,31.64c8.08,4.06,8.08,15.6,0,19.66Z"/>
      <path class="cls-1" d="M403.93,513.93H110c-60.65,0-110-49.35-110-110V110C0,49.35,49.35,0,110,0h293.93c60.65,0,110,49.35,110,110v293.93c0,60.65-49.35,110-110,110ZM110,20c-49.63,0-90,40.37-90,90v293.93c0,49.63,40.37,90,90,90h293.93c49.63,0,90-40.37,90-90V110c0-49.63-40.37-90-90-90H110Z"/>
    </g>
  </g>
</svg>